<mxfile host="app.diagrams.net" modified="2023-03-10T13:05:51.361Z" agent="5.0 (Windows NT 10.0; Win64; x64) AppleWebKit/537.36 (KHTML, like Gecko) Chrome/110.0.0.0 Safari/537.36 Edg/110.0.1587.63" etag="YXl0j09ZBXhMUyHFOTVq" version="21.0.6" type="github">
  <diagram id="C5RBs43oDa-KdzZeNtuy" name="Page-1">
    <mxGraphModel dx="4620" dy="2687" grid="1" gridSize="10" guides="1" tooltips="1" connect="1" arrows="1" fold="1" page="1" pageScale="1" pageWidth="827" pageHeight="1169" math="0" shadow="0">
      <root>
        <mxCell id="WIyWlLk6GJQsqaUBKTNV-0" />
        <mxCell id="WIyWlLk6GJQsqaUBKTNV-1" parent="WIyWlLk6GJQsqaUBKTNV-0" />
        <mxCell id="WIyWlLk6GJQsqaUBKTNV-2" value="" style="rounded=0;html=1;jettySize=auto;orthogonalLoop=1;fontSize=11;endArrow=block;endFill=0;endSize=8;strokeWidth=1;shadow=0;labelBackgroundColor=none;edgeStyle=orthogonalEdgeStyle;" parent="WIyWlLk6GJQsqaUBKTNV-1" source="WIyWlLk6GJQsqaUBKTNV-3" target="WIyWlLk6GJQsqaUBKTNV-6" edge="1">
          <mxGeometry relative="1" as="geometry" />
        </mxCell>
        <mxCell id="WIyWlLk6GJQsqaUBKTNV-3" value="ผู้ป่วยเข้ามารับบริการ" style="rounded=1;whiteSpace=wrap;html=1;fontSize=12;glass=0;strokeWidth=1;shadow=0;fontFamily=space mono;fontSource=https%3A%2F%2Ffonts.googleapis.com%2Fcss%3Ffamily%3Dspace%2Bmono;" parent="WIyWlLk6GJQsqaUBKTNV-1" vertex="1">
          <mxGeometry x="30" y="70" width="120" height="40" as="geometry" />
        </mxCell>
        <mxCell id="WIyWlLk6GJQsqaUBKTNV-4" value="No" style="rounded=0;html=1;jettySize=auto;orthogonalLoop=1;fontSize=11;endArrow=block;endFill=0;endSize=8;strokeWidth=1;shadow=0;labelBackgroundColor=none;edgeStyle=orthogonalEdgeStyle;fontFamily=space mono;fontSource=https%3A%2F%2Ffonts.googleapis.com%2Fcss%3Ffamily%3Dspace%2Bmono;exitX=0.5;exitY=1;exitDx=0;exitDy=0;" parent="WIyWlLk6GJQsqaUBKTNV-1" source="WIyWlLk6GJQsqaUBKTNV-6" target="WIyWlLk6GJQsqaUBKTNV-12" edge="1">
          <mxGeometry y="20" relative="1" as="geometry">
            <mxPoint as="offset" />
          </mxGeometry>
        </mxCell>
        <mxCell id="WIyWlLk6GJQsqaUBKTNV-5" value="Yes" style="edgeStyle=orthogonalEdgeStyle;rounded=0;html=1;jettySize=auto;orthogonalLoop=1;fontSize=11;endArrow=block;endFill=0;endSize=8;strokeWidth=1;shadow=0;labelBackgroundColor=none;fontFamily=space mono;fontSource=https%3A%2F%2Ffonts.googleapis.com%2Fcss%3Ffamily%3Dspace%2Bmono;" parent="WIyWlLk6GJQsqaUBKTNV-1" source="WIyWlLk6GJQsqaUBKTNV-6" target="WIyWlLk6GJQsqaUBKTNV-7" edge="1">
          <mxGeometry x="0.0065" y="10" relative="1" as="geometry">
            <mxPoint as="offset" />
          </mxGeometry>
        </mxCell>
        <mxCell id="WIyWlLk6GJQsqaUBKTNV-6" value="ผู้ป่วยเก่า?" style="rhombus;whiteSpace=wrap;html=1;shadow=0;fontFamily=space mono;fontSize=12;align=center;strokeWidth=1;spacing=6;spacingTop=-4;fontSource=https%3A%2F%2Ffonts.googleapis.com%2Fcss%3Ffamily%3Dspace%2Bmono;" parent="WIyWlLk6GJQsqaUBKTNV-1" vertex="1">
          <mxGeometry x="220" y="50" width="100" height="80" as="geometry" />
        </mxCell>
        <mxCell id="1RqYY2e8a6liGjpJobrj-1" style="edgeStyle=orthogonalEdgeStyle;rounded=0;orthogonalLoop=1;jettySize=auto;html=1;entryX=0.5;entryY=0;entryDx=0;entryDy=0;endArrow=block;endFill=0;" parent="WIyWlLk6GJQsqaUBKTNV-1" source="WIyWlLk6GJQsqaUBKTNV-7" target="1RqYY2e8a6liGjpJobrj-0" edge="1">
          <mxGeometry relative="1" as="geometry" />
        </mxCell>
        <mxCell id="WIyWlLk6GJQsqaUBKTNV-7" value="ST: หน้าห้องตรวจ&lt;br&gt;ค้นหาประวัติการรักษา&lt;br&gt;EMR, OPD Card" style="rounded=1;whiteSpace=wrap;html=1;fontSize=12;glass=0;strokeWidth=1;shadow=0;fontFamily=space mono;fontSource=https%3A%2F%2Ffonts.googleapis.com%2Fcss%3Ffamily%3Dspace%2Bmono;" parent="WIyWlLk6GJQsqaUBKTNV-1" vertex="1">
          <mxGeometry x="441" y="65" width="180" height="50" as="geometry" />
        </mxCell>
        <mxCell id="WIyWlLk6GJQsqaUBKTNV-12" value="ST: เวชระเบียนผู้ป่วย&lt;br&gt;เพิ่มประวัติผู้ป่วยใหม่&lt;br&gt;ตรวจสอบสิทธิการรักษา" style="rounded=1;whiteSpace=wrap;html=1;fontSize=12;glass=0;strokeWidth=1;shadow=0;fontFamily=space mono;fontSource=https%3A%2F%2Ffonts.googleapis.com%2Fcss%3Ffamily%3Dspace%2Bmono;" parent="WIyWlLk6GJQsqaUBKTNV-1" vertex="1">
          <mxGeometry x="180" y="240" width="180" height="50" as="geometry" />
        </mxCell>
        <mxCell id="1RqYY2e8a6liGjpJobrj-0" value="ST: _______&lt;br&gt;ตรวจสอบสิทธิการรักษา" style="rounded=1;whiteSpace=wrap;html=1;fontSize=12;glass=0;strokeWidth=1;shadow=0;fontFamily=space mono;fontSource=https%3A%2F%2Ffonts.googleapis.com%2Fcss%3Ffamily%3Dspace%2Bmono;" parent="WIyWlLk6GJQsqaUBKTNV-1" vertex="1">
          <mxGeometry x="441" y="160" width="180" height="40" as="geometry" />
        </mxCell>
        <mxCell id="1RqYY2e8a6liGjpJobrj-3" value="ST: หน้าห้องตรวจ&lt;br&gt;ซักประวัติ สอบถามอาการ วัด V/S (จัดลำดับคิวการเข้าห้องตรวจ)" style="rounded=1;whiteSpace=wrap;html=1;fontSize=12;glass=0;strokeWidth=1;shadow=0;fontFamily=space mono;fontSource=https%3A%2F%2Ffonts.googleapis.com%2Fcss%3Ffamily%3Dspace%2Bmono;" parent="WIyWlLk6GJQsqaUBKTNV-1" vertex="1">
          <mxGeometry x="441" y="240" width="180" height="50" as="geometry" />
        </mxCell>
        <mxCell id="1RqYY2e8a6liGjpJobrj-6" style="edgeStyle=orthogonalEdgeStyle;rounded=0;orthogonalLoop=1;jettySize=auto;html=1;entryX=0.5;entryY=0;entryDx=0;entryDy=0;endArrow=block;endFill=0;exitX=0.5;exitY=1;exitDx=0;exitDy=0;" parent="WIyWlLk6GJQsqaUBKTNV-1" source="1RqYY2e8a6liGjpJobrj-0" target="1RqYY2e8a6liGjpJobrj-3" edge="1">
          <mxGeometry relative="1" as="geometry">
            <mxPoint x="541" y="125" as="sourcePoint" />
            <mxPoint x="541" y="170" as="targetPoint" />
          </mxGeometry>
        </mxCell>
        <mxCell id="1RqYY2e8a6liGjpJobrj-7" value="ST: ห้องตรวจแพทย์&lt;br&gt;ซักประวัติ สอบถามอาการ &lt;br&gt;เรียกดูประวัติการรักษา วินิจฉัย" style="rounded=1;whiteSpace=wrap;html=1;fontSize=12;glass=0;strokeWidth=1;shadow=0;fontFamily=space mono;fontSource=https%3A%2F%2Ffonts.googleapis.com%2Fcss%3Ffamily%3Dspace%2Bmono;" parent="WIyWlLk6GJQsqaUBKTNV-1" vertex="1">
          <mxGeometry x="690" y="385" width="180" height="50" as="geometry" />
        </mxCell>
        <mxCell id="1RqYY2e8a6liGjpJobrj-8" value="Order LAB?" style="rhombus;whiteSpace=wrap;html=1;shadow=0;fontFamily=space mono;fontSize=12;align=center;strokeWidth=1;spacing=6;spacingTop=-4;fontSource=https%3A%2F%2Ffonts.googleapis.com%2Fcss%3Ffamily%3Dspace%2Bmono;" parent="WIyWlLk6GJQsqaUBKTNV-1" vertex="1">
          <mxGeometry x="697" y="482" width="166" height="60" as="geometry" />
        </mxCell>
        <mxCell id="1RqYY2e8a6liGjpJobrj-9" value="Order X-ray?" style="rhombus;whiteSpace=wrap;html=1;shadow=0;fontFamily=space mono;fontSize=12;align=center;strokeWidth=1;spacing=6;spacingTop=-4;fontSource=https%3A%2F%2Ffonts.googleapis.com%2Fcss%3Ffamily%3Dspace%2Bmono;" parent="WIyWlLk6GJQsqaUBKTNV-1" vertex="1">
          <mxGeometry x="697" y="582" width="166" height="60" as="geometry" />
        </mxCell>
        <mxCell id="1RqYY2e8a6liGjpJobrj-10" value="Order หัตถการ?" style="rhombus;whiteSpace=wrap;html=1;shadow=0;fontFamily=space mono;fontSize=12;align=center;strokeWidth=1;spacing=6;spacingTop=-4;fontSource=https%3A%2F%2Ffonts.googleapis.com%2Fcss%3Ffamily%3Dspace%2Bmono;" parent="WIyWlLk6GJQsqaUBKTNV-1" vertex="1">
          <mxGeometry x="697" y="684" width="166" height="60" as="geometry" />
        </mxCell>
        <mxCell id="1RqYY2e8a6liGjpJobrj-11" style="edgeStyle=orthogonalEdgeStyle;rounded=0;orthogonalLoop=1;jettySize=auto;html=1;endArrow=block;endFill=0;exitX=0.5;exitY=1;exitDx=0;exitDy=0;entryX=0.5;entryY=0;entryDx=0;entryDy=0;entryPerimeter=0;" parent="WIyWlLk6GJQsqaUBKTNV-1" source="1RqYY2e8a6liGjpJobrj-3" target="qahBIfakXGSAEwPWHKox-19" edge="1">
          <mxGeometry relative="1" as="geometry">
            <mxPoint x="541" y="210" as="sourcePoint" />
            <mxPoint x="530" y="330" as="targetPoint" />
          </mxGeometry>
        </mxCell>
        <mxCell id="1RqYY2e8a6liGjpJobrj-12" value="Order ยา?" style="rhombus;whiteSpace=wrap;html=1;shadow=0;fontFamily=space mono;fontSize=12;align=center;strokeWidth=1;spacing=6;spacingTop=-4;fontSource=https%3A%2F%2Ffonts.googleapis.com%2Fcss%3Ffamily%3Dspace%2Bmono;" parent="WIyWlLk6GJQsqaUBKTNV-1" vertex="1">
          <mxGeometry x="697" y="784" width="166" height="60" as="geometry" />
        </mxCell>
        <mxCell id="1RqYY2e8a6liGjpJobrj-13" style="edgeStyle=orthogonalEdgeStyle;rounded=0;orthogonalLoop=1;jettySize=auto;html=1;entryX=0.5;entryY=0;entryDx=0;entryDy=0;endArrow=block;endFill=0;exitX=0.5;exitY=1;exitDx=0;exitDy=0;" parent="WIyWlLk6GJQsqaUBKTNV-1" source="1RqYY2e8a6liGjpJobrj-7" target="1RqYY2e8a6liGjpJobrj-8" edge="1">
          <mxGeometry relative="1" as="geometry">
            <mxPoint x="777" y="435" as="sourcePoint" />
            <mxPoint x="790" y="395" as="targetPoint" />
          </mxGeometry>
        </mxCell>
        <mxCell id="1RqYY2e8a6liGjpJobrj-14" value="No" style="rounded=0;html=1;jettySize=auto;orthogonalLoop=1;fontSize=11;endArrow=block;endFill=0;endSize=8;strokeWidth=1;shadow=0;labelBackgroundColor=none;edgeStyle=orthogonalEdgeStyle;fontFamily=space mono;fontSource=https%3A%2F%2Ffonts.googleapis.com%2Fcss%3Ffamily%3Dspace%2Bmono;exitX=0.5;exitY=1;exitDx=0;exitDy=0;entryX=0.5;entryY=0;entryDx=0;entryDy=0;" parent="WIyWlLk6GJQsqaUBKTNV-1" source="1RqYY2e8a6liGjpJobrj-8" target="1RqYY2e8a6liGjpJobrj-9" edge="1">
          <mxGeometry y="13" relative="1" as="geometry">
            <mxPoint as="offset" />
            <mxPoint x="776.71" y="402" as="sourcePoint" />
            <mxPoint x="776.71" y="512" as="targetPoint" />
          </mxGeometry>
        </mxCell>
        <mxCell id="1RqYY2e8a6liGjpJobrj-15" value="No" style="rounded=0;html=1;jettySize=auto;orthogonalLoop=1;fontSize=11;endArrow=block;endFill=0;endSize=8;strokeWidth=1;shadow=0;labelBackgroundColor=none;edgeStyle=orthogonalEdgeStyle;fontFamily=space mono;fontSource=https%3A%2F%2Ffonts.googleapis.com%2Fcss%3Ffamily%3Dspace%2Bmono;entryX=0.5;entryY=0;entryDx=0;entryDy=0;exitX=0.5;exitY=1;exitDx=0;exitDy=0;" parent="WIyWlLk6GJQsqaUBKTNV-1" source="1RqYY2e8a6liGjpJobrj-9" target="1RqYY2e8a6liGjpJobrj-10" edge="1">
          <mxGeometry y="13" relative="1" as="geometry">
            <mxPoint as="offset" />
            <mxPoint x="777" y="642" as="sourcePoint" />
            <mxPoint x="787" y="592" as="targetPoint" />
          </mxGeometry>
        </mxCell>
        <mxCell id="1RqYY2e8a6liGjpJobrj-16" value="No" style="rounded=0;html=1;jettySize=auto;orthogonalLoop=1;fontSize=11;endArrow=block;endFill=0;endSize=8;strokeWidth=1;shadow=0;labelBackgroundColor=none;edgeStyle=orthogonalEdgeStyle;fontFamily=space mono;fontSource=https%3A%2F%2Ffonts.googleapis.com%2Fcss%3Ffamily%3Dspace%2Bmono;entryX=0.5;entryY=0;entryDx=0;entryDy=0;exitX=0.5;exitY=1;exitDx=0;exitDy=0;" parent="WIyWlLk6GJQsqaUBKTNV-1" source="1RqYY2e8a6liGjpJobrj-10" target="1RqYY2e8a6liGjpJobrj-12" edge="1">
          <mxGeometry y="13" relative="1" as="geometry">
            <mxPoint as="offset" />
            <mxPoint x="787" y="654" as="sourcePoint" />
            <mxPoint x="780" y="774" as="targetPoint" />
          </mxGeometry>
        </mxCell>
        <mxCell id="1RqYY2e8a6liGjpJobrj-18" style="edgeStyle=orthogonalEdgeStyle;rounded=0;orthogonalLoop=1;jettySize=auto;html=1;entryX=0;entryY=0.5;entryDx=0;entryDy=0;endArrow=block;endFill=0;exitX=1;exitY=0.5;exitDx=0;exitDy=0;" parent="WIyWlLk6GJQsqaUBKTNV-1" source="WIyWlLk6GJQsqaUBKTNV-12" target="1RqYY2e8a6liGjpJobrj-3" edge="1">
          <mxGeometry relative="1" as="geometry">
            <mxPoint x="510" y="210" as="sourcePoint" />
            <mxPoint x="510" y="250" as="targetPoint" />
          </mxGeometry>
        </mxCell>
        <mxCell id="1RqYY2e8a6liGjpJobrj-19" value="ST: ห้องตรวจแพทย์&lt;br&gt;บันทึกรายการตรวจเบื้องต้น,&lt;br&gt;Order list ที่ต้องการ" style="rounded=1;whiteSpace=wrap;html=1;fontSize=12;glass=0;strokeWidth=1;shadow=0;fontFamily=space mono;fontSource=https%3A%2F%2Ffonts.googleapis.com%2Fcss%3Ffamily%3Dspace%2Bmono;" parent="WIyWlLk6GJQsqaUBKTNV-1" vertex="1">
          <mxGeometry x="1059" y="487" width="180" height="50" as="geometry" />
        </mxCell>
        <mxCell id="1RqYY2e8a6liGjpJobrj-24" value="&lt;font data-font-src=&quot;https://fonts.googleapis.com/css?family=space+mono&quot; face=&quot;space mono&quot;&gt;2&lt;/font&gt;" style="strokeWidth=2;html=1;shape=mxgraph.flowchart.start_2;whiteSpace=wrap;" parent="WIyWlLk6GJQsqaUBKTNV-1" vertex="1">
          <mxGeometry x="960" y="492" width="40" height="40" as="geometry" />
        </mxCell>
        <mxCell id="1RqYY2e8a6liGjpJobrj-25" style="edgeStyle=orthogonalEdgeStyle;rounded=0;orthogonalLoop=1;jettySize=auto;html=1;endArrow=block;endFill=0;entryX=0;entryY=0.5;entryDx=0;entryDy=0;exitX=1;exitY=0.5;exitDx=0;exitDy=0;exitPerimeter=0;" parent="WIyWlLk6GJQsqaUBKTNV-1" source="1RqYY2e8a6liGjpJobrj-24" target="1RqYY2e8a6liGjpJobrj-19" edge="1">
          <mxGeometry relative="1" as="geometry">
            <mxPoint x="1029" y="512" as="sourcePoint" />
            <mxPoint x="979" y="367" as="targetPoint" />
          </mxGeometry>
        </mxCell>
        <mxCell id="1RqYY2e8a6liGjpJobrj-26" value="Yes" style="edgeStyle=orthogonalEdgeStyle;rounded=0;html=1;jettySize=auto;orthogonalLoop=1;fontSize=11;endArrow=block;endFill=0;endSize=8;strokeWidth=1;shadow=0;labelBackgroundColor=none;fontFamily=space mono;fontSource=https%3A%2F%2Ffonts.googleapis.com%2Fcss%3Ffamily%3Dspace%2Bmono;exitX=1;exitY=0.5;exitDx=0;exitDy=0;entryX=0;entryY=0.5;entryDx=0;entryDy=0;entryPerimeter=0;" parent="WIyWlLk6GJQsqaUBKTNV-1" source="1RqYY2e8a6liGjpJobrj-8" target="1RqYY2e8a6liGjpJobrj-24" edge="1">
          <mxGeometry x="-0.4679" y="10" relative="1" as="geometry">
            <mxPoint as="offset" />
            <mxPoint x="879" y="402" as="sourcePoint" />
            <mxPoint x="939" y="382" as="targetPoint" />
          </mxGeometry>
        </mxCell>
        <mxCell id="1RqYY2e8a6liGjpJobrj-27" value="Yes" style="edgeStyle=orthogonalEdgeStyle;rounded=0;html=1;jettySize=auto;orthogonalLoop=1;fontSize=11;endArrow=block;endFill=0;endSize=8;strokeWidth=1;shadow=0;labelBackgroundColor=none;fontFamily=space mono;fontSource=https%3A%2F%2Ffonts.googleapis.com%2Fcss%3Ffamily%3Dspace%2Bmono;entryX=0;entryY=0.5;entryDx=0;entryDy=0;entryPerimeter=0;" parent="WIyWlLk6GJQsqaUBKTNV-1" source="1RqYY2e8a6liGjpJobrj-9" target="1RqYY2e8a6liGjpJobrj-24" edge="1">
          <mxGeometry x="-0.7225" y="10" relative="1" as="geometry">
            <mxPoint as="offset" />
            <mxPoint x="870" y="522" as="sourcePoint" />
            <mxPoint x="979" y="522" as="targetPoint" />
          </mxGeometry>
        </mxCell>
        <mxCell id="1RqYY2e8a6liGjpJobrj-28" value="Yes" style="edgeStyle=orthogonalEdgeStyle;rounded=0;html=1;jettySize=auto;orthogonalLoop=1;fontSize=11;endArrow=block;endFill=0;endSize=8;strokeWidth=1;shadow=0;labelBackgroundColor=none;fontFamily=space mono;fontSource=https%3A%2F%2Ffonts.googleapis.com%2Fcss%3Ffamily%3Dspace%2Bmono;entryX=0;entryY=0.5;entryDx=0;entryDy=0;entryPerimeter=0;exitX=1;exitY=0.5;exitDx=0;exitDy=0;" parent="WIyWlLk6GJQsqaUBKTNV-1" source="1RqYY2e8a6liGjpJobrj-10" target="1RqYY2e8a6liGjpJobrj-24" edge="1">
          <mxGeometry x="-0.8123" y="10" relative="1" as="geometry">
            <mxPoint as="offset" />
            <mxPoint x="870" y="622" as="sourcePoint" />
            <mxPoint x="979" y="522" as="targetPoint" />
          </mxGeometry>
        </mxCell>
        <mxCell id="1RqYY2e8a6liGjpJobrj-29" value="Yes" style="edgeStyle=orthogonalEdgeStyle;rounded=0;html=1;jettySize=auto;orthogonalLoop=1;fontSize=11;endArrow=block;endFill=0;endSize=8;strokeWidth=1;shadow=0;labelBackgroundColor=none;fontFamily=space mono;fontSource=https%3A%2F%2Ffonts.googleapis.com%2Fcss%3Ffamily%3Dspace%2Bmono;entryX=0;entryY=0.5;entryDx=0;entryDy=0;entryPerimeter=0;exitX=1;exitY=0.5;exitDx=0;exitDy=0;" parent="WIyWlLk6GJQsqaUBKTNV-1" source="1RqYY2e8a6liGjpJobrj-12" target="1RqYY2e8a6liGjpJobrj-24" edge="1">
          <mxGeometry x="-0.8582" y="10" relative="1" as="geometry">
            <mxPoint as="offset" />
            <mxPoint x="870" y="722" as="sourcePoint" />
            <mxPoint x="979" y="522" as="targetPoint" />
          </mxGeometry>
        </mxCell>
        <mxCell id="1RqYY2e8a6liGjpJobrj-31" value="ST: ห้องตรวจแพทย์&lt;br&gt;ส่งออกจากห้องตรวจฯ พร้อมสถานะ.." style="rounded=1;whiteSpace=wrap;html=1;fontSize=12;glass=0;strokeWidth=1;shadow=0;fontFamily=space mono;fontSource=https%3A%2F%2Ffonts.googleapis.com%2Fcss%3Ffamily%3Dspace%2Bmono;" parent="WIyWlLk6GJQsqaUBKTNV-1" vertex="1">
          <mxGeometry x="1049.5" y="577" width="199" height="50" as="geometry" />
        </mxCell>
        <mxCell id="1RqYY2e8a6liGjpJobrj-32" value="No" style="rounded=0;html=1;jettySize=auto;orthogonalLoop=1;fontSize=11;endArrow=block;endFill=0;endSize=8;strokeWidth=1;shadow=0;labelBackgroundColor=none;fontFamily=space mono;fontSource=https%3A%2F%2Ffonts.googleapis.com%2Fcss%3Ffamily%3Dspace%2Bmono;exitX=0.5;exitY=1;exitDx=0;exitDy=0;entryX=0.5;entryY=1;entryDx=0;entryDy=0;edgeStyle=orthogonalEdgeStyle;entryPerimeter=0;" parent="WIyWlLk6GJQsqaUBKTNV-1" source="1RqYY2e8a6liGjpJobrj-12" target="yvNfWJmXIzpKwHx-HULG-0" edge="1">
          <mxGeometry y="13" relative="1" as="geometry">
            <mxPoint as="offset" />
            <mxPoint x="779" y="854" as="sourcePoint" />
            <mxPoint x="780" y="894" as="targetPoint" />
          </mxGeometry>
        </mxCell>
        <mxCell id="1RqYY2e8a6liGjpJobrj-34" style="edgeStyle=orthogonalEdgeStyle;rounded=0;orthogonalLoop=1;jettySize=auto;html=1;endArrow=block;endFill=0;entryX=0.5;entryY=0;entryDx=0;entryDy=0;exitX=0.5;exitY=1;exitDx=0;exitDy=0;entryPerimeter=0;" parent="WIyWlLk6GJQsqaUBKTNV-1" source="1RqYY2e8a6liGjpJobrj-19" target="yvNfWJmXIzpKwHx-HULG-0" edge="1">
          <mxGeometry relative="1" as="geometry">
            <mxPoint x="621" y="522" as="sourcePoint" />
            <mxPoint x="651" y="522" as="targetPoint" />
          </mxGeometry>
        </mxCell>
        <mxCell id="1RqYY2e8a6liGjpJobrj-35" value="สถานะ:&lt;br&gt;ผู้ป่วย&lt;span style=&quot;background-color: rgb(255, 204, 230);&quot;&gt;&lt;font color=&quot;#000000&quot;&gt;ส่งตรวจรอผล&lt;/font&gt;&lt;/span&gt;" style="rhombus;whiteSpace=wrap;html=1;shadow=0;fontFamily=space mono;fontSize=12;align=center;strokeWidth=1;spacing=6;spacingTop=-4;fontSource=https%3A%2F%2Ffonts.googleapis.com%2Fcss%3Ffamily%3Dspace%2Bmono;" parent="WIyWlLk6GJQsqaUBKTNV-1" vertex="1">
          <mxGeometry x="1066" y="662" width="166" height="60" as="geometry" />
        </mxCell>
        <mxCell id="1RqYY2e8a6liGjpJobrj-36" value="สถานะ:&lt;br&gt;ผู้ป่วยส่ง&lt;font style=&quot;background-color: rgb(230, 255, 204);&quot; color=&quot;#000000&quot;&gt;ทำหัตถการ&lt;/font&gt;" style="rhombus;whiteSpace=wrap;html=1;shadow=0;fontFamily=space mono;fontSize=12;align=center;strokeWidth=1;spacing=6;spacingTop=-4;fontSource=https%3A%2F%2Ffonts.googleapis.com%2Fcss%3Ffamily%3Dspace%2Bmono;" parent="WIyWlLk6GJQsqaUBKTNV-1" vertex="1">
          <mxGeometry x="1066" y="762" width="166" height="60" as="geometry" />
        </mxCell>
        <mxCell id="1RqYY2e8a6liGjpJobrj-41" style="edgeStyle=orthogonalEdgeStyle;rounded=0;orthogonalLoop=1;jettySize=auto;html=1;endArrow=block;endFill=0;entryX=0.5;entryY=0;entryDx=0;entryDy=0;exitX=0.5;exitY=1;exitDx=0;exitDy=0;" parent="WIyWlLk6GJQsqaUBKTNV-1" source="1RqYY2e8a6liGjpJobrj-31" target="1RqYY2e8a6liGjpJobrj-35" edge="1">
          <mxGeometry relative="1" as="geometry">
            <mxPoint x="1149" y="632" as="sourcePoint" />
            <mxPoint x="1159" y="587" as="targetPoint" />
          </mxGeometry>
        </mxCell>
        <mxCell id="1RqYY2e8a6liGjpJobrj-42" value="สถานะ:&lt;br&gt;ผู้ป่วยส่ง &lt;font style=&quot;background-color: rgb(204, 255, 255);&quot; color=&quot;#000000&quot;&gt;Consult&lt;/font&gt;" style="rhombus;whiteSpace=wrap;html=1;shadow=0;fontFamily=space mono;fontSize=12;align=center;strokeWidth=1;spacing=6;spacingTop=-4;fontSource=https%3A%2F%2Ffonts.googleapis.com%2Fcss%3Ffamily%3Dspace%2Bmono;" parent="WIyWlLk6GJQsqaUBKTNV-1" vertex="1">
          <mxGeometry x="1066" y="862" width="166" height="60" as="geometry" />
        </mxCell>
        <mxCell id="1RqYY2e8a6liGjpJobrj-45" value="ST: หน้าห้องตรวจ&lt;br&gt;รคส.แพทย์, เก็บ Specimen,&lt;br&gt;ส่งต่อ ST (LAB, X-Ray)" style="rounded=1;whiteSpace=wrap;html=1;fontSize=12;glass=0;strokeWidth=1;shadow=0;fontFamily=space mono;fontSource=https%3A%2F%2Ffonts.googleapis.com%2Fcss%3Ffamily%3Dspace%2Bmono;" parent="WIyWlLk6GJQsqaUBKTNV-1" vertex="1">
          <mxGeometry x="1328" y="665.75" width="200" height="52.5" as="geometry" />
        </mxCell>
        <mxCell id="1RqYY2e8a6liGjpJobrj-46" value="ST: หน้าห้องตรวจ&lt;br&gt;รคส.แพทย์, เก็บ Specimen,&lt;br&gt;ส่งต่อ ST (OPD, OR, ER, ...)" style="rounded=1;whiteSpace=wrap;html=1;fontSize=12;glass=0;strokeWidth=1;shadow=0;fontFamily=space mono;fontSource=https%3A%2F%2Ffonts.googleapis.com%2Fcss%3Ffamily%3Dspace%2Bmono;" parent="WIyWlLk6GJQsqaUBKTNV-1" vertex="1">
          <mxGeometry x="1328" y="765.75" width="200" height="52.5" as="geometry" />
        </mxCell>
        <mxCell id="1RqYY2e8a6liGjpJobrj-47" value="ST: หน้าห้องตรวจ&lt;br&gt;จัดคิวผู้ป่วยเข้าห้องแพทย์ที่ Consult" style="rounded=1;whiteSpace=wrap;html=1;fontSize=12;glass=0;strokeWidth=1;shadow=0;fontFamily=space mono;fontSource=https%3A%2F%2Ffonts.googleapis.com%2Fcss%3Ffamily%3Dspace%2Bmono;" parent="WIyWlLk6GJQsqaUBKTNV-1" vertex="1">
          <mxGeometry x="1328" y="865.75" width="200" height="52.5" as="geometry" />
        </mxCell>
        <mxCell id="1RqYY2e8a6liGjpJobrj-48" value="ST: หน้าห้องตรวจ&lt;br&gt;ตรวจสอบคำสั่งแพทย์ว่ามีเพียง ยาหรือค่าใช้จ่ายที่ต้องออกใบเสร็จฯ เท่านั้น" style="rounded=1;whiteSpace=wrap;html=1;fontSize=12;glass=0;strokeWidth=1;shadow=0;fontFamily=space mono;fontSource=https%3A%2F%2Ffonts.googleapis.com%2Fcss%3Ffamily%3Dspace%2Bmono;" parent="WIyWlLk6GJQsqaUBKTNV-1" vertex="1">
          <mxGeometry x="1287" y="1188.75" width="200" height="52.5" as="geometry" />
        </mxCell>
        <mxCell id="1RqYY2e8a6liGjpJobrj-49" value="No" style="rounded=0;html=1;jettySize=auto;orthogonalLoop=1;fontSize=11;endArrow=block;endFill=0;endSize=8;strokeWidth=1;shadow=0;labelBackgroundColor=none;fontFamily=space mono;fontSource=https%3A%2F%2Ffonts.googleapis.com%2Fcss%3Ffamily%3Dspace%2Bmono;exitX=0.5;exitY=1;exitDx=0;exitDy=0;entryX=0.5;entryY=0;entryDx=0;entryDy=0;edgeStyle=orthogonalEdgeStyle;" parent="WIyWlLk6GJQsqaUBKTNV-1" source="1RqYY2e8a6liGjpJobrj-36" target="1RqYY2e8a6liGjpJobrj-42" edge="1">
          <mxGeometry y="13" relative="1" as="geometry">
            <mxPoint as="offset" />
            <mxPoint x="816" y="852" as="sourcePoint" />
            <mxPoint x="816" y="902" as="targetPoint" />
          </mxGeometry>
        </mxCell>
        <mxCell id="1RqYY2e8a6liGjpJobrj-50" value="No" style="rounded=0;html=1;jettySize=auto;orthogonalLoop=1;fontSize=11;endArrow=block;endFill=0;endSize=8;strokeWidth=1;shadow=0;labelBackgroundColor=none;fontFamily=space mono;fontSource=https%3A%2F%2Ffonts.googleapis.com%2Fcss%3Ffamily%3Dspace%2Bmono;exitX=0.5;exitY=1;exitDx=0;exitDy=0;edgeStyle=orthogonalEdgeStyle;entryX=0.5;entryY=0;entryDx=0;entryDy=0;" parent="WIyWlLk6GJQsqaUBKTNV-1" source="1RqYY2e8a6liGjpJobrj-35" target="1RqYY2e8a6liGjpJobrj-36" edge="1">
          <mxGeometry y="9" relative="1" as="geometry">
            <mxPoint as="offset" />
            <mxPoint x="1159" y="832" as="sourcePoint" />
            <mxPoint x="1149" y="762" as="targetPoint" />
          </mxGeometry>
        </mxCell>
        <mxCell id="1RqYY2e8a6liGjpJobrj-51" value="No" style="rounded=0;html=1;jettySize=auto;orthogonalLoop=1;fontSize=11;endArrow=block;endFill=0;endSize=8;strokeWidth=1;shadow=0;labelBackgroundColor=none;fontFamily=space mono;fontSource=https%3A%2F%2Ffonts.googleapis.com%2Fcss%3Ffamily%3Dspace%2Bmono;edgeStyle=orthogonalEdgeStyle;exitX=0.5;exitY=1;exitDx=0;exitDy=0;entryX=0.5;entryY=0;entryDx=0;entryDy=0;" parent="WIyWlLk6GJQsqaUBKTNV-1" source="1RqYY2e8a6liGjpJobrj-42" target="yvNfWJmXIzpKwHx-HULG-2" edge="1">
          <mxGeometry y="13" relative="1" as="geometry">
            <mxPoint as="offset" />
            <mxPoint x="1148" y="922" as="sourcePoint" />
            <mxPoint x="1148.9999999999998" y="962" as="targetPoint" />
          </mxGeometry>
        </mxCell>
        <mxCell id="1RqYY2e8a6liGjpJobrj-52" value="Yes" style="edgeStyle=orthogonalEdgeStyle;rounded=0;html=1;jettySize=auto;orthogonalLoop=1;fontSize=11;endArrow=block;endFill=0;endSize=8;strokeWidth=1;shadow=0;labelBackgroundColor=none;fontFamily=space mono;fontSource=https%3A%2F%2Ffonts.googleapis.com%2Fcss%3Ffamily%3Dspace%2Bmono;exitX=1;exitY=0.5;exitDx=0;exitDy=0;entryX=0;entryY=0.5;entryDx=0;entryDy=0;" parent="WIyWlLk6GJQsqaUBKTNV-1" source="1RqYY2e8a6liGjpJobrj-35" target="1RqYY2e8a6liGjpJobrj-45" edge="1">
          <mxGeometry x="-0.0417" y="10" relative="1" as="geometry">
            <mxPoint as="offset" />
            <mxPoint x="899" y="522" as="sourcePoint" />
            <mxPoint x="999" y="522" as="targetPoint" />
          </mxGeometry>
        </mxCell>
        <mxCell id="1RqYY2e8a6liGjpJobrj-54" value="Yes" style="edgeStyle=orthogonalEdgeStyle;rounded=0;html=1;jettySize=auto;orthogonalLoop=1;fontSize=11;endArrow=block;endFill=0;endSize=8;strokeWidth=1;shadow=0;labelBackgroundColor=none;fontFamily=space mono;fontSource=https%3A%2F%2Ffonts.googleapis.com%2Fcss%3Ffamily%3Dspace%2Bmono;exitX=1;exitY=0.5;exitDx=0;exitDy=0;entryX=0;entryY=0.5;entryDx=0;entryDy=0;" parent="WIyWlLk6GJQsqaUBKTNV-1" source="1RqYY2e8a6liGjpJobrj-36" target="1RqYY2e8a6liGjpJobrj-46" edge="1">
          <mxGeometry x="-0.0417" y="10" relative="1" as="geometry">
            <mxPoint as="offset" />
            <mxPoint x="1242" y="702" as="sourcePoint" />
            <mxPoint x="1318" y="792" as="targetPoint" />
          </mxGeometry>
        </mxCell>
        <mxCell id="1RqYY2e8a6liGjpJobrj-55" value="Yes" style="edgeStyle=orthogonalEdgeStyle;rounded=0;html=1;jettySize=auto;orthogonalLoop=1;fontSize=11;endArrow=block;endFill=0;endSize=8;strokeWidth=1;shadow=0;labelBackgroundColor=none;fontFamily=space mono;fontSource=https%3A%2F%2Ffonts.googleapis.com%2Fcss%3Ffamily%3Dspace%2Bmono;entryX=0;entryY=0.5;entryDx=0;entryDy=0;" parent="WIyWlLk6GJQsqaUBKTNV-1" source="1RqYY2e8a6liGjpJobrj-42" target="1RqYY2e8a6liGjpJobrj-47" edge="1">
          <mxGeometry x="-0.0417" y="10" relative="1" as="geometry">
            <mxPoint as="offset" />
            <mxPoint x="1242" y="802" as="sourcePoint" />
            <mxPoint x="1328" y="892" as="targetPoint" />
          </mxGeometry>
        </mxCell>
        <mxCell id="1RqYY2e8a6liGjpJobrj-57" value="" style="edgeStyle=orthogonalEdgeStyle;rounded=0;html=1;jettySize=auto;orthogonalLoop=1;fontSize=11;endArrow=block;endFill=0;endSize=8;strokeWidth=1;shadow=0;labelBackgroundColor=none;fontFamily=space mono;fontSource=https%3A%2F%2Ffonts.googleapis.com%2Fcss%3Ffamily%3Dspace%2Bmono;entryX=0;entryY=0.5;entryDx=0;entryDy=0;exitX=1;exitY=0.5;exitDx=0;exitDy=0;" parent="WIyWlLk6GJQsqaUBKTNV-1" source="qahBIfakXGSAEwPWHKox-28" target="1RqYY2e8a6liGjpJobrj-48" edge="1">
          <mxGeometry x="-0.0417" y="10" relative="1" as="geometry">
            <mxPoint as="offset" />
            <mxPoint x="1230.9999999999998" y="1215" as="sourcePoint" />
            <mxPoint x="1337" y="1125" as="targetPoint" />
          </mxGeometry>
        </mxCell>
        <mxCell id="1RqYY2e8a6liGjpJobrj-58" style="edgeStyle=orthogonalEdgeStyle;rounded=0;orthogonalLoop=1;jettySize=auto;html=1;endArrow=block;endFill=0;entryX=0.5;entryY=0;entryDx=0;entryDy=0;exitX=0.5;exitY=1;exitDx=0;exitDy=0;dashed=1;" parent="WIyWlLk6GJQsqaUBKTNV-1" source="1RqYY2e8a6liGjpJobrj-45" target="1RqYY2e8a6liGjpJobrj-46" edge="1">
          <mxGeometry relative="1" as="geometry">
            <mxPoint x="1159" y="637" as="sourcePoint" />
            <mxPoint x="1159" y="672" as="targetPoint" />
            <Array as="points">
              <mxPoint x="1428" y="742" />
              <mxPoint x="1428" y="742" />
            </Array>
          </mxGeometry>
        </mxCell>
        <mxCell id="1RqYY2e8a6liGjpJobrj-63" value="What if" style="edgeLabel;html=1;align=center;verticalAlign=middle;resizable=0;points=[];fontFamily=space mono;fontSource=https%3A%2F%2Ffonts.googleapis.com%2Fcss%3Ffamily%3Dspace%2Bmono;" parent="1RqYY2e8a6liGjpJobrj-58" vertex="1" connectable="0">
          <mxGeometry x="0.288" y="-1" relative="1" as="geometry">
            <mxPoint x="31" y="-7" as="offset" />
          </mxGeometry>
        </mxCell>
        <mxCell id="1RqYY2e8a6liGjpJobrj-64" style="edgeStyle=orthogonalEdgeStyle;rounded=0;orthogonalLoop=1;jettySize=auto;html=1;endArrow=block;endFill=0;entryX=0.5;entryY=0;entryDx=0;entryDy=0;exitX=0.5;exitY=1;exitDx=0;exitDy=0;dashed=1;" parent="WIyWlLk6GJQsqaUBKTNV-1" source="1RqYY2e8a6liGjpJobrj-46" target="1RqYY2e8a6liGjpJobrj-47" edge="1">
          <mxGeometry relative="1" as="geometry">
            <mxPoint x="1438" y="728" as="sourcePoint" />
            <mxPoint x="1438" y="776" as="targetPoint" />
            <Array as="points">
              <mxPoint x="1428" y="842" />
              <mxPoint x="1428" y="842" />
            </Array>
          </mxGeometry>
        </mxCell>
        <mxCell id="1RqYY2e8a6liGjpJobrj-65" value="What if" style="edgeLabel;html=1;align=center;verticalAlign=middle;resizable=0;points=[];fontFamily=space mono;fontSource=https%3A%2F%2Ffonts.googleapis.com%2Fcss%3Ffamily%3Dspace%2Bmono;" parent="1RqYY2e8a6liGjpJobrj-64" vertex="1" connectable="0">
          <mxGeometry x="0.288" y="-1" relative="1" as="geometry">
            <mxPoint x="31" y="-7" as="offset" />
          </mxGeometry>
        </mxCell>
        <mxCell id="1RqYY2e8a6liGjpJobrj-66" style="edgeStyle=orthogonalEdgeStyle;rounded=0;orthogonalLoop=1;jettySize=auto;html=1;endArrow=block;endFill=0;entryX=0.5;entryY=0;entryDx=0;entryDy=0;exitX=0.5;exitY=1;exitDx=0;exitDy=0;dashed=1;" parent="WIyWlLk6GJQsqaUBKTNV-1" source="1RqYY2e8a6liGjpJobrj-47" target="yvNfWJmXIzpKwHx-HULG-3" edge="1">
          <mxGeometry relative="1" as="geometry">
            <mxPoint x="1438" y="728" as="sourcePoint" />
            <mxPoint x="1438" y="776" as="targetPoint" />
            <Array as="points" />
          </mxGeometry>
        </mxCell>
        <mxCell id="1RqYY2e8a6liGjpJobrj-67" value="What if" style="edgeLabel;html=1;align=center;verticalAlign=middle;resizable=0;points=[];fontFamily=space mono;fontSource=https%3A%2F%2Ffonts.googleapis.com%2Fcss%3Ffamily%3Dspace%2Bmono;" parent="1RqYY2e8a6liGjpJobrj-66" vertex="1" connectable="0">
          <mxGeometry x="0.288" y="-1" relative="1" as="geometry">
            <mxPoint x="31" y="-7" as="offset" />
          </mxGeometry>
        </mxCell>
        <mxCell id="1RqYY2e8a6liGjpJobrj-68" value="ST: ห้อง Lab&lt;br&gt;รคส.แพทย์, เก็บ Specimen,&lt;br&gt;ส่งต่อ ST อื่นหรือหน้าห้องตรวจ" style="rounded=1;whiteSpace=wrap;html=1;fontSize=12;glass=0;strokeWidth=1;shadow=0;fontFamily=space mono;fontSource=https%3A%2F%2Ffonts.googleapis.com%2Fcss%3Ffamily%3Dspace%2Bmono;" parent="WIyWlLk6GJQsqaUBKTNV-1" vertex="1">
          <mxGeometry x="1748" y="490.75" width="200" height="52.5" as="geometry" />
        </mxCell>
        <mxCell id="1RqYY2e8a6liGjpJobrj-69" value="ST: ห้อง X-ray&lt;br&gt;รคส.แพทย์,&amp;nbsp;ส่งต่อ ST อื่น&lt;br&gt;หรือหน้าห้องตรวจ" style="rounded=1;whiteSpace=wrap;html=1;fontSize=12;glass=0;strokeWidth=1;shadow=0;fontFamily=space mono;fontSource=https%3A%2F%2Ffonts.googleapis.com%2Fcss%3Ffamily%3Dspace%2Bmono;" parent="WIyWlLk6GJQsqaUBKTNV-1" vertex="1">
          <mxGeometry x="1748" y="587.5" width="200" height="52.5" as="geometry" />
        </mxCell>
        <mxCell id="1RqYY2e8a6liGjpJobrj-70" style="edgeStyle=orthogonalEdgeStyle;rounded=0;orthogonalLoop=1;jettySize=auto;html=1;endArrow=block;endFill=0;entryX=0;entryY=0.5;entryDx=0;entryDy=0;exitX=1;exitY=0.5;exitDx=0;exitDy=0;" parent="WIyWlLk6GJQsqaUBKTNV-1" source="1RqYY2e8a6liGjpJobrj-45" target="1RqYY2e8a6liGjpJobrj-71" edge="1">
          <mxGeometry relative="1" as="geometry">
            <mxPoint x="1708" y="608.75" as="sourcePoint" />
            <mxPoint x="1279" y="550.75" as="targetPoint" />
          </mxGeometry>
        </mxCell>
        <mxCell id="1RqYY2e8a6liGjpJobrj-71" value="มี Lab?" style="rhombus;whiteSpace=wrap;html=1;shadow=0;fontFamily=space mono;fontSize=12;align=center;strokeWidth=1;spacing=6;spacingTop=-4;fontSource=https%3A%2F%2Ffonts.googleapis.com%2Fcss%3Ffamily%3Dspace%2Bmono;" parent="WIyWlLk6GJQsqaUBKTNV-1" vertex="1">
          <mxGeometry x="1578" y="487" width="107" height="60" as="geometry" />
        </mxCell>
        <mxCell id="1RqYY2e8a6liGjpJobrj-73" value="Yes" style="edgeStyle=orthogonalEdgeStyle;rounded=0;html=1;jettySize=auto;orthogonalLoop=1;fontSize=11;endArrow=block;endFill=0;endSize=8;strokeWidth=1;shadow=0;labelBackgroundColor=none;fontFamily=space mono;fontSource=https%3A%2F%2Ffonts.googleapis.com%2Fcss%3Ffamily%3Dspace%2Bmono;exitX=1;exitY=0.5;exitDx=0;exitDy=0;entryX=0;entryY=0.5;entryDx=0;entryDy=0;" parent="WIyWlLk6GJQsqaUBKTNV-1" source="1RqYY2e8a6liGjpJobrj-71" target="1RqYY2e8a6liGjpJobrj-68" edge="1">
          <mxGeometry x="-0.0417" y="10" relative="1" as="geometry">
            <mxPoint as="offset" />
            <mxPoint x="1242" y="687" as="sourcePoint" />
            <mxPoint x="1338" y="687" as="targetPoint" />
          </mxGeometry>
        </mxCell>
        <mxCell id="1RqYY2e8a6liGjpJobrj-74" value="No" style="rounded=0;html=1;jettySize=auto;orthogonalLoop=1;fontSize=11;endArrow=block;endFill=0;endSize=8;strokeWidth=1;shadow=0;labelBackgroundColor=none;fontFamily=space mono;fontSource=https%3A%2F%2Ffonts.googleapis.com%2Fcss%3Ffamily%3Dspace%2Bmono;exitX=0.5;exitY=1;exitDx=0;exitDy=0;edgeStyle=orthogonalEdgeStyle;entryX=0.5;entryY=0;entryDx=0;entryDy=0;" parent="WIyWlLk6GJQsqaUBKTNV-1" source="1RqYY2e8a6liGjpJobrj-71" target="qahBIfakXGSAEwPWHKox-30" edge="1">
          <mxGeometry y="9" relative="1" as="geometry">
            <mxPoint as="offset" />
            <mxPoint x="1159" y="717" as="sourcePoint" />
            <mxPoint x="1631.5" y="583.75" as="targetPoint" />
          </mxGeometry>
        </mxCell>
        <mxCell id="1RqYY2e8a6liGjpJobrj-75" value="" style="edgeStyle=orthogonalEdgeStyle;rounded=0;html=1;jettySize=auto;orthogonalLoop=1;fontSize=11;endArrow=block;endFill=0;endSize=8;strokeWidth=1;shadow=0;labelBackgroundColor=none;fontFamily=space mono;fontSource=https%3A%2F%2Ffonts.googleapis.com%2Fcss%3Ffamily%3Dspace%2Bmono;exitX=1;exitY=0.5;exitDx=0;exitDy=0;entryX=0;entryY=0.5;entryDx=0;entryDy=0;" parent="WIyWlLk6GJQsqaUBKTNV-1" source="qahBIfakXGSAEwPWHKox-30" target="1RqYY2e8a6liGjpJobrj-69" edge="1">
          <mxGeometry x="-0.0417" y="10" relative="1" as="geometry">
            <mxPoint as="offset" />
            <mxPoint x="1685" y="613.75" as="sourcePoint" />
            <mxPoint x="1758" y="520" as="targetPoint" />
          </mxGeometry>
        </mxCell>
        <mxCell id="1RqYY2e8a6liGjpJobrj-76" value="ST: ห้อง Lab&lt;br&gt;Request Order ไปที่ระบบ LIS&lt;br&gt;บันทึกผล Lab ที่อ่านค่าได้" style="rounded=1;whiteSpace=wrap;html=1;fontSize=12;glass=0;strokeWidth=1;shadow=0;fontFamily=space mono;fontSource=https%3A%2F%2Ffonts.googleapis.com%2Fcss%3Ffamily%3Dspace%2Bmono;" parent="WIyWlLk6GJQsqaUBKTNV-1" vertex="1">
          <mxGeometry x="1988" y="490.75" width="200" height="52.5" as="geometry" />
        </mxCell>
        <mxCell id="1RqYY2e8a6liGjpJobrj-77" value="ST: ห้อง X-ray&lt;br&gt;Request Order ไปที่ระบบ PAC&lt;br&gt;บันทึกผล X-ray ที่อ่านค่าได้" style="rounded=1;whiteSpace=wrap;html=1;fontSize=12;glass=0;strokeWidth=1;shadow=0;fontFamily=space mono;fontSource=https%3A%2F%2Ffonts.googleapis.com%2Fcss%3Ffamily%3Dspace%2Bmono;" parent="WIyWlLk6GJQsqaUBKTNV-1" vertex="1">
          <mxGeometry x="1988" y="587.5" width="200" height="52.5" as="geometry" />
        </mxCell>
        <mxCell id="1RqYY2e8a6liGjpJobrj-78" style="edgeStyle=orthogonalEdgeStyle;rounded=0;orthogonalLoop=1;jettySize=auto;html=1;endArrow=block;endFill=0;entryX=0;entryY=0.5;entryDx=0;entryDy=0;exitX=1;exitY=0.5;exitDx=0;exitDy=0;" parent="WIyWlLk6GJQsqaUBKTNV-1" source="1RqYY2e8a6liGjpJobrj-68" target="1RqYY2e8a6liGjpJobrj-76" edge="1">
          <mxGeometry relative="1" as="geometry">
            <mxPoint x="1948" y="517" as="sourcePoint" />
            <mxPoint x="1159" y="572" as="targetPoint" />
          </mxGeometry>
        </mxCell>
        <mxCell id="1RqYY2e8a6liGjpJobrj-79" style="edgeStyle=orthogonalEdgeStyle;rounded=0;orthogonalLoop=1;jettySize=auto;html=1;endArrow=block;endFill=0;entryX=0;entryY=0.5;entryDx=0;entryDy=0;exitX=1;exitY=0.5;exitDx=0;exitDy=0;" parent="WIyWlLk6GJQsqaUBKTNV-1" source="1RqYY2e8a6liGjpJobrj-69" target="1RqYY2e8a6liGjpJobrj-77" edge="1">
          <mxGeometry relative="1" as="geometry">
            <mxPoint x="1958" y="527" as="sourcePoint" />
            <mxPoint x="1998" y="527" as="targetPoint" />
          </mxGeometry>
        </mxCell>
        <mxCell id="qahBIfakXGSAEwPWHKox-0" value="ST: ห้องที่ต้องทำการ...&lt;br&gt;ทำหัตถการแพทย์,&amp;nbsp;ส่งต่อ ST อื่น&lt;br&gt;หรือหน้าห้องตรวจ" style="rounded=1;whiteSpace=wrap;html=1;fontSize=12;glass=0;strokeWidth=1;shadow=0;fontFamily=space mono;fontSource=https%3A%2F%2Ffonts.googleapis.com%2Fcss%3Ffamily%3Dspace%2Bmono;" parent="WIyWlLk6GJQsqaUBKTNV-1" vertex="1">
          <mxGeometry x="1748" y="682.75" width="200" height="52.5" as="geometry" />
        </mxCell>
        <mxCell id="qahBIfakXGSAEwPWHKox-1" value="ST: ห้องที่ต้องทำการ...&lt;br&gt;รคส.แพทย์, ทำบริการ พยบ.,&amp;nbsp;&lt;br&gt;ส่งต่อ ST อื่นหรือหน้าห้องตรวจ" style="rounded=1;whiteSpace=wrap;html=1;fontSize=12;glass=0;strokeWidth=1;shadow=0;fontFamily=space mono;fontSource=https%3A%2F%2Ffonts.googleapis.com%2Fcss%3Ffamily%3Dspace%2Bmono;" parent="WIyWlLk6GJQsqaUBKTNV-1" vertex="1">
          <mxGeometry x="1748" y="779.5" width="200" height="52.5" as="geometry" />
        </mxCell>
        <mxCell id="qahBIfakXGSAEwPWHKox-2" value="มี หัตถการแพทย์?" style="rhombus;whiteSpace=wrap;html=1;shadow=0;fontFamily=space mono;fontSize=12;align=center;strokeWidth=1;spacing=6;spacingTop=-4;fontSource=https%3A%2F%2Ffonts.googleapis.com%2Fcss%3Ffamily%3Dspace%2Bmono;" parent="WIyWlLk6GJQsqaUBKTNV-1" vertex="1">
          <mxGeometry x="1578" y="679" width="107" height="60" as="geometry" />
        </mxCell>
        <mxCell id="qahBIfakXGSAEwPWHKox-4" value="Yes" style="edgeStyle=orthogonalEdgeStyle;rounded=0;html=1;jettySize=auto;orthogonalLoop=1;fontSize=11;endArrow=block;endFill=0;endSize=8;strokeWidth=1;shadow=0;labelBackgroundColor=none;fontFamily=space mono;fontSource=https%3A%2F%2Ffonts.googleapis.com%2Fcss%3Ffamily%3Dspace%2Bmono;exitX=1;exitY=0.5;exitDx=0;exitDy=0;entryX=0;entryY=0.5;entryDx=0;entryDy=0;" parent="WIyWlLk6GJQsqaUBKTNV-1" source="qahBIfakXGSAEwPWHKox-2" target="qahBIfakXGSAEwPWHKox-0" edge="1">
          <mxGeometry x="-0.0417" y="10" relative="1" as="geometry">
            <mxPoint as="offset" />
            <mxPoint x="1242" y="879" as="sourcePoint" />
            <mxPoint x="1338" y="879" as="targetPoint" />
          </mxGeometry>
        </mxCell>
        <mxCell id="qahBIfakXGSAEwPWHKox-5" value="No" style="rounded=0;html=1;jettySize=auto;orthogonalLoop=1;fontSize=11;endArrow=block;endFill=0;endSize=8;strokeWidth=1;shadow=0;labelBackgroundColor=none;fontFamily=space mono;fontSource=https%3A%2F%2Ffonts.googleapis.com%2Fcss%3Ffamily%3Dspace%2Bmono;exitX=0.5;exitY=1;exitDx=0;exitDy=0;edgeStyle=orthogonalEdgeStyle;entryX=0.5;entryY=0;entryDx=0;entryDy=0;" parent="WIyWlLk6GJQsqaUBKTNV-1" source="qahBIfakXGSAEwPWHKox-2" target="qahBIfakXGSAEwPWHKox-31" edge="1">
          <mxGeometry y="9" relative="1" as="geometry">
            <mxPoint as="offset" />
            <mxPoint x="1159" y="909" as="sourcePoint" />
            <mxPoint x="1631.5" y="775.75" as="targetPoint" />
          </mxGeometry>
        </mxCell>
        <mxCell id="qahBIfakXGSAEwPWHKox-6" value="" style="edgeStyle=orthogonalEdgeStyle;rounded=0;html=1;jettySize=auto;orthogonalLoop=1;fontSize=11;endArrow=block;endFill=0;endSize=8;strokeWidth=1;shadow=0;labelBackgroundColor=none;fontFamily=space mono;fontSource=https%3A%2F%2Ffonts.googleapis.com%2Fcss%3Ffamily%3Dspace%2Bmono;exitX=1;exitY=0.5;exitDx=0;exitDy=0;entryX=0;entryY=0.5;entryDx=0;entryDy=0;" parent="WIyWlLk6GJQsqaUBKTNV-1" source="qahBIfakXGSAEwPWHKox-31" target="qahBIfakXGSAEwPWHKox-1" edge="1">
          <mxGeometry x="-0.0417" y="10" relative="1" as="geometry">
            <mxPoint as="offset" />
            <mxPoint x="1685" y="805.75" as="sourcePoint" />
            <mxPoint x="1758" y="712" as="targetPoint" />
          </mxGeometry>
        </mxCell>
        <mxCell id="qahBIfakXGSAEwPWHKox-7" value="ST: ห้องที่ต้องทำการ...&lt;br&gt;บันทึกทำหัตการ ค่าใช้จ่ายที่เพิ่มเติม" style="rounded=1;whiteSpace=wrap;html=1;fontSize=12;glass=0;strokeWidth=1;shadow=0;fontFamily=space mono;fontSource=https%3A%2F%2Ffonts.googleapis.com%2Fcss%3Ffamily%3Dspace%2Bmono;" parent="WIyWlLk6GJQsqaUBKTNV-1" vertex="1">
          <mxGeometry x="1988" y="682.75" width="200" height="52.5" as="geometry" />
        </mxCell>
        <mxCell id="qahBIfakXGSAEwPWHKox-8" value="ST: ห้องที่ต้องทำการ...&lt;br&gt;บันทึกทำหัตการ ค่าใช้จ่ายที่เพิ่มเติม" style="rounded=1;whiteSpace=wrap;html=1;fontSize=12;glass=0;strokeWidth=1;shadow=0;fontFamily=space mono;fontSource=https%3A%2F%2Ffonts.googleapis.com%2Fcss%3Ffamily%3Dspace%2Bmono;" parent="WIyWlLk6GJQsqaUBKTNV-1" vertex="1">
          <mxGeometry x="1988" y="779.5" width="200" height="52.5" as="geometry" />
        </mxCell>
        <mxCell id="qahBIfakXGSAEwPWHKox-9" style="edgeStyle=orthogonalEdgeStyle;rounded=0;orthogonalLoop=1;jettySize=auto;html=1;endArrow=block;endFill=0;entryX=0;entryY=0.5;entryDx=0;entryDy=0;exitX=1;exitY=0.5;exitDx=0;exitDy=0;" parent="WIyWlLk6GJQsqaUBKTNV-1" source="qahBIfakXGSAEwPWHKox-0" target="qahBIfakXGSAEwPWHKox-7" edge="1">
          <mxGeometry relative="1" as="geometry">
            <mxPoint x="1948" y="709" as="sourcePoint" />
            <mxPoint x="1159" y="764" as="targetPoint" />
          </mxGeometry>
        </mxCell>
        <mxCell id="qahBIfakXGSAEwPWHKox-10" style="edgeStyle=orthogonalEdgeStyle;rounded=0;orthogonalLoop=1;jettySize=auto;html=1;endArrow=block;endFill=0;entryX=0;entryY=0.5;entryDx=0;entryDy=0;exitX=1;exitY=0.5;exitDx=0;exitDy=0;" parent="WIyWlLk6GJQsqaUBKTNV-1" source="qahBIfakXGSAEwPWHKox-1" target="qahBIfakXGSAEwPWHKox-8" edge="1">
          <mxGeometry relative="1" as="geometry">
            <mxPoint x="1958" y="719" as="sourcePoint" />
            <mxPoint x="1998" y="719" as="targetPoint" />
          </mxGeometry>
        </mxCell>
        <mxCell id="qahBIfakXGSAEwPWHKox-11" style="edgeStyle=orthogonalEdgeStyle;rounded=0;orthogonalLoop=1;jettySize=auto;html=1;endArrow=block;endFill=0;exitX=1;exitY=0.5;exitDx=0;exitDy=0;entryX=0;entryY=0.5;entryDx=0;entryDy=0;" parent="WIyWlLk6GJQsqaUBKTNV-1" source="1RqYY2e8a6liGjpJobrj-46" target="qahBIfakXGSAEwPWHKox-2" edge="1">
          <mxGeometry relative="1" as="geometry">
            <mxPoint x="1538" y="702" as="sourcePoint" />
            <mxPoint x="1588" y="735" as="targetPoint" />
          </mxGeometry>
        </mxCell>
        <mxCell id="qahBIfakXGSAEwPWHKox-19" value="&lt;font data-font-src=&quot;https://fonts.googleapis.com/css?family=space+mono&quot; face=&quot;space mono&quot;&gt;1&lt;/font&gt;" style="strokeWidth=2;html=1;shape=mxgraph.flowchart.start_2;whiteSpace=wrap;" parent="WIyWlLk6GJQsqaUBKTNV-1" vertex="1">
          <mxGeometry x="511" y="316" width="40" height="40" as="geometry" />
        </mxCell>
        <mxCell id="qahBIfakXGSAEwPWHKox-22" value="ST: หน้าห้องตรวจ&lt;br&gt;ค้นหาประวัติการรักษา&lt;br&gt;EMR, OPD Card" style="rounded=1;whiteSpace=wrap;html=1;fontSize=12;glass=0;strokeWidth=1;shadow=0;fontFamily=space mono;fontSource=https%3A%2F%2Ffonts.googleapis.com%2Fcss%3Ffamily%3Dspace%2Bmono;" parent="WIyWlLk6GJQsqaUBKTNV-1" vertex="1">
          <mxGeometry x="441" y="65" width="180" height="50" as="geometry" />
        </mxCell>
        <mxCell id="qahBIfakXGSAEwPWHKox-24" value="&lt;font data-font-src=&quot;https://fonts.googleapis.com/css?family=space+mono&quot; face=&quot;space mono&quot;&gt;1&lt;/font&gt;" style="strokeWidth=2;html=1;shape=mxgraph.flowchart.start_2;whiteSpace=wrap;" parent="WIyWlLk6GJQsqaUBKTNV-1" vertex="1">
          <mxGeometry x="1568" y="872" width="40" height="40" as="geometry" />
        </mxCell>
        <mxCell id="qahBIfakXGSAEwPWHKox-25" style="edgeStyle=orthogonalEdgeStyle;rounded=0;orthogonalLoop=1;jettySize=auto;html=1;endArrow=block;endFill=0;entryX=0;entryY=0.5;entryDx=0;entryDy=0;exitX=1;exitY=0.5;exitDx=0;exitDy=0;entryPerimeter=0;" parent="WIyWlLk6GJQsqaUBKTNV-1" source="1RqYY2e8a6liGjpJobrj-47" target="qahBIfakXGSAEwPWHKox-24" edge="1">
          <mxGeometry relative="1" as="geometry">
            <mxPoint x="1958" y="816" as="sourcePoint" />
            <mxPoint x="1998" y="816" as="targetPoint" />
          </mxGeometry>
        </mxCell>
        <mxCell id="qahBIfakXGSAEwPWHKox-26" value="ST: การเงินผู้ป่วย&lt;br&gt;ตรวจค่าใช้จ่ายที่เกิดขึ้นในระบบ&lt;br&gt;ทุกรายการจะต้องรับคำสั่งทั้งหมดแล้ว" style="rounded=1;whiteSpace=wrap;html=1;fontSize=12;glass=0;strokeWidth=1;shadow=0;fontFamily=space mono;fontSource=https%3A%2F%2Ffonts.googleapis.com%2Fcss%3Ffamily%3Dspace%2Bmono;" parent="WIyWlLk6GJQsqaUBKTNV-1" vertex="1">
          <mxGeometry x="1501.5" y="1348.75" width="200" height="52.5" as="geometry" />
        </mxCell>
        <mxCell id="qahBIfakXGSAEwPWHKox-27" style="edgeStyle=orthogonalEdgeStyle;rounded=0;orthogonalLoop=1;jettySize=auto;html=1;endArrow=block;endFill=0;entryX=0;entryY=0.5;entryDx=0;entryDy=0;exitX=1;exitY=0.5;exitDx=0;exitDy=0;" parent="WIyWlLk6GJQsqaUBKTNV-1" source="1RqYY2e8a6liGjpJobrj-48" target="yvNfWJmXIzpKwHx-HULG-26" edge="1">
          <mxGeometry relative="1" as="geometry">
            <mxPoint x="1497" y="1125" as="sourcePoint" />
            <mxPoint x="1537" y="1125" as="targetPoint" />
          </mxGeometry>
        </mxCell>
        <mxCell id="qahBIfakXGSAEwPWHKox-28" value="สถานะ:&lt;br&gt;ผู้ป่วย&lt;font style=&quot;background-color: rgb(179, 255, 102);&quot; color=&quot;#000000&quot;&gt;ตรวจเสร็จกลับบ้าน&lt;/font&gt;" style="rounded=1;whiteSpace=wrap;html=1;fontSize=12;glass=0;strokeWidth=1;shadow=0;fontFamily=space mono;fontSource=https%3A%2F%2Ffonts.googleapis.com%2Fcss%3Ffamily%3Dspace%2Bmono;" parent="WIyWlLk6GJQsqaUBKTNV-1" vertex="1">
          <mxGeometry x="1068" y="1188.75" width="162" height="52.5" as="geometry" />
        </mxCell>
        <mxCell id="qahBIfakXGSAEwPWHKox-30" value="มี X-ray" style="rounded=1;whiteSpace=wrap;html=1;fontSize=12;glass=0;strokeWidth=1;shadow=0;fontFamily=space mono;fontSource=https%3A%2F%2Ffonts.googleapis.com%2Fcss%3Ffamily%3Dspace%2Bmono;" parent="WIyWlLk6GJQsqaUBKTNV-1" vertex="1">
          <mxGeometry x="1576.5" y="599.13" width="110" height="29.25" as="geometry" />
        </mxCell>
        <mxCell id="qahBIfakXGSAEwPWHKox-31" value="มี บริการพยาบาล" style="rounded=1;whiteSpace=wrap;html=1;fontSize=12;glass=0;strokeWidth=1;shadow=0;fontFamily=space mono;fontSource=https%3A%2F%2Ffonts.googleapis.com%2Fcss%3Ffamily%3Dspace%2Bmono;" parent="WIyWlLk6GJQsqaUBKTNV-1" vertex="1">
          <mxGeometry x="1576.5" y="791.12" width="110" height="29.25" as="geometry" />
        </mxCell>
        <mxCell id="yvNfWJmXIzpKwHx-HULG-0" value="&lt;font data-font-src=&quot;https://fonts.googleapis.com/css?family=space+mono&quot; face=&quot;space mono&quot;&gt;3&lt;/font&gt;" style="strokeWidth=2;html=1;shape=mxgraph.flowchart.start_2;whiteSpace=wrap;" parent="WIyWlLk6GJQsqaUBKTNV-1" vertex="1">
          <mxGeometry x="960" y="582" width="40" height="40" as="geometry" />
        </mxCell>
        <mxCell id="yvNfWJmXIzpKwHx-HULG-1" style="edgeStyle=orthogonalEdgeStyle;rounded=0;orthogonalLoop=1;jettySize=auto;html=1;endArrow=block;endFill=0;entryX=0;entryY=0.5;entryDx=0;entryDy=0;exitX=1;exitY=0.5;exitDx=0;exitDy=0;exitPerimeter=0;" parent="WIyWlLk6GJQsqaUBKTNV-1" source="yvNfWJmXIzpKwHx-HULG-0" target="1RqYY2e8a6liGjpJobrj-31" edge="1">
          <mxGeometry relative="1" as="geometry">
            <mxPoint x="1010" y="522" as="sourcePoint" />
            <mxPoint x="1069" y="522" as="targetPoint" />
          </mxGeometry>
        </mxCell>
        <mxCell id="yvNfWJmXIzpKwHx-HULG-2" value="สถานะ:&lt;br&gt;ผู้ป่วยส่ง &lt;font style=&quot;background-color: rgb(204, 255, 255);&quot; color=&quot;#000000&quot;&gt;Admit&lt;/font&gt;" style="rhombus;whiteSpace=wrap;html=1;shadow=0;fontFamily=space mono;fontSize=12;align=center;strokeWidth=1;spacing=6;spacingTop=-4;fontSource=https%3A%2F%2Ffonts.googleapis.com%2Fcss%3Ffamily%3Dspace%2Bmono;" parent="WIyWlLk6GJQsqaUBKTNV-1" vertex="1">
          <mxGeometry x="1066" y="965" width="166" height="60" as="geometry" />
        </mxCell>
        <mxCell id="yvNfWJmXIzpKwHx-HULG-3" value="ST: หน้าห้องตรวจ&lt;br&gt;เตรียมเอกสารการ admit, &lt;br&gt;ประสานหอผู้ป่วยจัดเตรียมห้องพัก-เตียง" style="rounded=1;whiteSpace=wrap;html=1;fontSize=12;glass=0;strokeWidth=1;shadow=0;fontFamily=space mono;fontSource=https%3A%2F%2Ffonts.googleapis.com%2Fcss%3Ffamily%3Dspace%2Bmono;" parent="WIyWlLk6GJQsqaUBKTNV-1" vertex="1">
          <mxGeometry x="1328" y="968.75" width="200" height="52.5" as="geometry" />
        </mxCell>
        <mxCell id="yvNfWJmXIzpKwHx-HULG-4" value="Yes" style="edgeStyle=orthogonalEdgeStyle;rounded=0;html=1;jettySize=auto;orthogonalLoop=1;fontSize=11;endArrow=block;endFill=0;endSize=8;strokeWidth=1;shadow=0;labelBackgroundColor=none;fontFamily=space mono;fontSource=https%3A%2F%2Ffonts.googleapis.com%2Fcss%3Ffamily%3Dspace%2Bmono;entryX=0;entryY=0.5;entryDx=0;entryDy=0;exitX=1;exitY=0.5;exitDx=0;exitDy=0;" parent="WIyWlLk6GJQsqaUBKTNV-1" source="yvNfWJmXIzpKwHx-HULG-2" target="yvNfWJmXIzpKwHx-HULG-3" edge="1">
          <mxGeometry x="-0.0417" y="10" relative="1" as="geometry">
            <mxPoint as="offset" />
            <mxPoint x="1242" y="905" as="sourcePoint" />
            <mxPoint x="1328" y="995" as="targetPoint" />
          </mxGeometry>
        </mxCell>
        <mxCell id="yvNfWJmXIzpKwHx-HULG-5" value="" style="rounded=0;html=1;jettySize=auto;orthogonalLoop=1;fontSize=11;endArrow=block;endFill=0;endSize=8;strokeWidth=1;shadow=0;labelBackgroundColor=none;fontFamily=space mono;fontSource=https%3A%2F%2Ffonts.googleapis.com%2Fcss%3Ffamily%3Dspace%2Bmono;edgeStyle=orthogonalEdgeStyle;exitX=0.5;exitY=1;exitDx=0;exitDy=0;entryX=0.5;entryY=0;entryDx=0;entryDy=0;startArrow=none;" parent="WIyWlLk6GJQsqaUBKTNV-1" source="PeQBqCHpVeVmycIjUM5T-111" target="qahBIfakXGSAEwPWHKox-28" edge="1">
          <mxGeometry x="-0.3333" y="20" relative="1" as="geometry">
            <mxPoint as="offset" />
            <mxPoint x="1159" y="932" as="sourcePoint" />
            <mxPoint x="1159" y="975" as="targetPoint" />
          </mxGeometry>
        </mxCell>
        <mxCell id="yvNfWJmXIzpKwHx-HULG-8" value="&lt;font data-font-src=&quot;https://fonts.googleapis.com/css?family=space+mono&quot; face=&quot;space mono&quot;&gt;4&lt;/font&gt;" style="strokeWidth=2;html=1;shape=mxgraph.flowchart.start_2;whiteSpace=wrap;" parent="WIyWlLk6GJQsqaUBKTNV-1" vertex="1">
          <mxGeometry x="1568" y="975" width="40" height="40" as="geometry" />
        </mxCell>
        <mxCell id="yvNfWJmXIzpKwHx-HULG-9" style="edgeStyle=orthogonalEdgeStyle;rounded=0;orthogonalLoop=1;jettySize=auto;html=1;endArrow=block;endFill=0;entryX=0;entryY=0.5;entryDx=0;entryDy=0;exitX=1;exitY=0.5;exitDx=0;exitDy=0;entryPerimeter=0;" parent="WIyWlLk6GJQsqaUBKTNV-1" source="yvNfWJmXIzpKwHx-HULG-3" target="yvNfWJmXIzpKwHx-HULG-8" edge="1">
          <mxGeometry relative="1" as="geometry">
            <mxPoint x="1538" y="902" as="sourcePoint" />
            <mxPoint x="1578" y="902" as="targetPoint" />
          </mxGeometry>
        </mxCell>
        <mxCell id="yvNfWJmXIzpKwHx-HULG-10" value="&lt;font data-font-src=&quot;https://fonts.googleapis.com/css?family=space+mono&quot; face=&quot;space mono&quot;&gt;5&lt;/font&gt;" style="strokeWidth=2;html=1;shape=mxgraph.flowchart.start_2;whiteSpace=wrap;" parent="WIyWlLk6GJQsqaUBKTNV-1" vertex="1">
          <mxGeometry x="1129" y="1055" width="40" height="40" as="geometry" />
        </mxCell>
        <mxCell id="yvNfWJmXIzpKwHx-HULG-12" value="No" style="rounded=0;html=1;jettySize=auto;orthogonalLoop=1;fontSize=11;endArrow=block;endFill=0;endSize=8;strokeWidth=1;shadow=0;labelBackgroundColor=none;fontFamily=space mono;fontSource=https%3A%2F%2Ffonts.googleapis.com%2Fcss%3Ffamily%3Dspace%2Bmono;edgeStyle=orthogonalEdgeStyle;exitX=0.5;exitY=1;exitDx=0;exitDy=0;startArrow=none;entryX=0.5;entryY=0;entryDx=0;entryDy=0;entryPerimeter=0;" parent="WIyWlLk6GJQsqaUBKTNV-1" source="yvNfWJmXIzpKwHx-HULG-2" target="yvNfWJmXIzpKwHx-HULG-10" edge="1">
          <mxGeometry y="13" relative="1" as="geometry">
            <mxPoint as="offset" />
            <mxPoint x="1159" y="1105" as="sourcePoint" />
            <mxPoint x="1149" y="1055" as="targetPoint" />
          </mxGeometry>
        </mxCell>
        <mxCell id="yvNfWJmXIzpKwHx-HULG-13" value="ต้องส่งกลับ&lt;br&gt;ห้องตรวจแพทย์อีกครั้ง ?" style="rhombus;whiteSpace=wrap;html=1;shadow=0;fontFamily=space mono;fontSize=12;align=center;strokeWidth=1;spacing=6;spacingTop=-4;fontSource=https%3A%2F%2Ffonts.googleapis.com%2Fcss%3Ffamily%3Dspace%2Bmono;" parent="WIyWlLk6GJQsqaUBKTNV-1" vertex="1">
          <mxGeometry x="1779" y="862" width="152" height="60" as="geometry" />
        </mxCell>
        <mxCell id="yvNfWJmXIzpKwHx-HULG-14" value="&lt;font data-font-src=&quot;https://fonts.googleapis.com/css?family=space+mono&quot; face=&quot;space mono&quot;&gt;6&lt;br&gt;&lt;/font&gt;" style="strokeWidth=2;html=1;shape=mxgraph.flowchart.start_2;whiteSpace=wrap;" parent="WIyWlLk6GJQsqaUBKTNV-1" vertex="1">
          <mxGeometry x="2199" y="872" width="40" height="40" as="geometry" />
        </mxCell>
        <mxCell id="yvNfWJmXIzpKwHx-HULG-15" value="" style="edgeStyle=orthogonalEdgeStyle;rounded=0;html=1;jettySize=auto;orthogonalLoop=1;fontSize=11;endArrow=block;endFill=0;endSize=8;strokeWidth=1;shadow=0;labelBackgroundColor=none;fontFamily=space mono;fontSource=https%3A%2F%2Ffonts.googleapis.com%2Fcss%3Ffamily%3Dspace%2Bmono;exitX=0;exitY=0.5;exitDx=0;exitDy=0;entryX=1;entryY=0.5;entryDx=0;entryDy=0;exitPerimeter=0;" parent="WIyWlLk6GJQsqaUBKTNV-1" source="yvNfWJmXIzpKwHx-HULG-14" target="yvNfWJmXIzpKwHx-HULG-13" edge="1">
          <mxGeometry x="-0.0417" y="10" relative="1" as="geometry">
            <mxPoint as="offset" />
            <mxPoint x="1697" y="816" as="sourcePoint" />
            <mxPoint x="1758" y="816" as="targetPoint" />
          </mxGeometry>
        </mxCell>
        <mxCell id="yvNfWJmXIzpKwHx-HULG-16" style="edgeStyle=orthogonalEdgeStyle;rounded=0;orthogonalLoop=1;jettySize=auto;html=1;endArrow=block;endFill=0;exitX=1;exitY=0.5;exitDx=0;exitDy=0;entryX=0.5;entryY=0;entryDx=0;entryDy=0;entryPerimeter=0;" parent="WIyWlLk6GJQsqaUBKTNV-1" source="1RqYY2e8a6liGjpJobrj-76" target="yvNfWJmXIzpKwHx-HULG-14" edge="1">
          <mxGeometry relative="1" as="geometry">
            <mxPoint x="1958" y="527" as="sourcePoint" />
            <mxPoint x="2259" y="635" as="targetPoint" />
          </mxGeometry>
        </mxCell>
        <mxCell id="yvNfWJmXIzpKwHx-HULG-17" style="edgeStyle=orthogonalEdgeStyle;rounded=0;orthogonalLoop=1;jettySize=auto;html=1;endArrow=block;endFill=0;exitX=1;exitY=0.5;exitDx=0;exitDy=0;entryX=0.5;entryY=0;entryDx=0;entryDy=0;entryPerimeter=0;" parent="WIyWlLk6GJQsqaUBKTNV-1" source="1RqYY2e8a6liGjpJobrj-77" target="yvNfWJmXIzpKwHx-HULG-14" edge="1">
          <mxGeometry relative="1" as="geometry">
            <mxPoint x="2198" y="527" as="sourcePoint" />
            <mxPoint x="2269" y="653" as="targetPoint" />
          </mxGeometry>
        </mxCell>
        <mxCell id="yvNfWJmXIzpKwHx-HULG-18" style="edgeStyle=orthogonalEdgeStyle;rounded=0;orthogonalLoop=1;jettySize=auto;html=1;endArrow=block;endFill=0;exitX=1;exitY=0.5;exitDx=0;exitDy=0;entryX=0.5;entryY=0;entryDx=0;entryDy=0;entryPerimeter=0;" parent="WIyWlLk6GJQsqaUBKTNV-1" source="qahBIfakXGSAEwPWHKox-7" target="yvNfWJmXIzpKwHx-HULG-14" edge="1">
          <mxGeometry relative="1" as="geometry">
            <mxPoint x="2208" y="537" as="sourcePoint" />
            <mxPoint x="2279" y="663" as="targetPoint" />
          </mxGeometry>
        </mxCell>
        <mxCell id="yvNfWJmXIzpKwHx-HULG-19" style="edgeStyle=orthogonalEdgeStyle;rounded=0;orthogonalLoop=1;jettySize=auto;html=1;endArrow=block;endFill=0;exitX=1;exitY=0.5;exitDx=0;exitDy=0;entryX=0.5;entryY=0;entryDx=0;entryDy=0;entryPerimeter=0;" parent="WIyWlLk6GJQsqaUBKTNV-1" source="qahBIfakXGSAEwPWHKox-8" target="yvNfWJmXIzpKwHx-HULG-14" edge="1">
          <mxGeometry relative="1" as="geometry">
            <mxPoint x="2198" y="719" as="sourcePoint" />
            <mxPoint x="2259" y="685" as="targetPoint" />
          </mxGeometry>
        </mxCell>
        <mxCell id="yvNfWJmXIzpKwHx-HULG-21" value="Yes" style="edgeStyle=orthogonalEdgeStyle;rounded=0;html=1;jettySize=auto;orthogonalLoop=1;fontSize=11;endArrow=block;endFill=0;endSize=8;strokeWidth=1;shadow=0;labelBackgroundColor=none;fontFamily=space mono;fontSource=https%3A%2F%2Ffonts.googleapis.com%2Fcss%3Ffamily%3Dspace%2Bmono;exitX=0;exitY=0.5;exitDx=0;exitDy=0;entryX=1;entryY=0.5;entryDx=0;entryDy=0;entryPerimeter=0;" parent="WIyWlLk6GJQsqaUBKTNV-1" source="yvNfWJmXIzpKwHx-HULG-13" target="qahBIfakXGSAEwPWHKox-24" edge="1">
          <mxGeometry x="-0.0334" y="14" relative="1" as="geometry">
            <mxPoint as="offset" />
            <mxPoint x="1695" y="719" as="sourcePoint" />
            <mxPoint x="1758" y="719" as="targetPoint" />
          </mxGeometry>
        </mxCell>
        <mxCell id="yvNfWJmXIzpKwHx-HULG-22" value="No" style="rounded=0;html=1;jettySize=auto;orthogonalLoop=1;fontSize=11;endArrow=block;endFill=0;endSize=8;strokeWidth=1;shadow=0;labelBackgroundColor=none;fontFamily=space mono;fontSource=https%3A%2F%2Ffonts.googleapis.com%2Fcss%3Ffamily%3Dspace%2Bmono;edgeStyle=orthogonalEdgeStyle;exitX=0.5;exitY=1;exitDx=0;exitDy=0;entryX=1;entryY=0.5;entryDx=0;entryDy=0;entryPerimeter=0;" parent="WIyWlLk6GJQsqaUBKTNV-1" source="yvNfWJmXIzpKwHx-HULG-13" target="yvNfWJmXIzpKwHx-HULG-10" edge="1">
          <mxGeometry x="-0.9452" y="14" relative="1" as="geometry">
            <mxPoint as="offset" />
            <mxPoint x="2429" y="805" as="sourcePoint" />
            <mxPoint x="2509" y="835" as="targetPoint" />
          </mxGeometry>
        </mxCell>
        <mxCell id="yvNfWJmXIzpKwHx-HULG-24" value="ST: ห้องจ่ายยา&lt;br&gt;ผู้ป่วยยื่นใบสั่งยา (ถ้ามี), &lt;br&gt;พิมพ์ sticker, จัดยาตาม Order" style="rounded=1;whiteSpace=wrap;html=1;fontSize=12;glass=0;strokeWidth=1;shadow=0;fontFamily=space mono;fontSource=https%3A%2F%2Ffonts.googleapis.com%2Fcss%3Ffamily%3Dspace%2Bmono;" parent="WIyWlLk6GJQsqaUBKTNV-1" vertex="1">
          <mxGeometry x="1727" y="1275" width="200" height="52.5" as="geometry" />
        </mxCell>
        <mxCell id="yvNfWJmXIzpKwHx-HULG-25" style="edgeStyle=orthogonalEdgeStyle;rounded=0;orthogonalLoop=1;jettySize=auto;html=1;endArrow=block;endFill=0;entryX=0.5;entryY=0;entryDx=0;entryDy=0;exitX=0.5;exitY=1;exitDx=0;exitDy=0;" parent="WIyWlLk6GJQsqaUBKTNV-1" source="yvNfWJmXIzpKwHx-HULG-28" target="yvNfWJmXIzpKwHx-HULG-24" edge="1">
          <mxGeometry relative="1" as="geometry">
            <mxPoint x="1247" y="1364.75" as="sourcePoint" />
            <mxPoint x="1297" y="1364.75" as="targetPoint" />
          </mxGeometry>
        </mxCell>
        <mxCell id="yvNfWJmXIzpKwHx-HULG-26" value="มี Order ยา ?" style="rhombus;whiteSpace=wrap;html=1;shadow=0;fontFamily=space mono;fontSize=12;align=center;strokeWidth=1;spacing=6;spacingTop=-4;fontSource=https%3A%2F%2Ffonts.googleapis.com%2Fcss%3Ffamily%3Dspace%2Bmono;" parent="WIyWlLk6GJQsqaUBKTNV-1" vertex="1">
          <mxGeometry x="1536" y="1185" width="131" height="60" as="geometry" />
        </mxCell>
        <mxCell id="yvNfWJmXIzpKwHx-HULG-27" value="No" style="rounded=0;html=1;jettySize=auto;orthogonalLoop=1;fontSize=11;endArrow=block;endFill=0;endSize=8;strokeWidth=1;shadow=0;labelBackgroundColor=none;fontFamily=space mono;fontSource=https%3A%2F%2Ffonts.googleapis.com%2Fcss%3Ffamily%3Dspace%2Bmono;edgeStyle=orthogonalEdgeStyle;exitX=0.5;exitY=1;exitDx=0;exitDy=0;entryX=0.5;entryY=0;entryDx=0;entryDy=0;entryPerimeter=0;" parent="WIyWlLk6GJQsqaUBKTNV-1" source="yvNfWJmXIzpKwHx-HULG-26" target="yvNfWJmXIzpKwHx-HULG-30" edge="1">
          <mxGeometry y="13" relative="1" as="geometry">
            <mxPoint as="offset" />
            <mxPoint x="1117" y="995.75" as="sourcePoint" />
            <mxPoint x="1597" y="1298.75" as="targetPoint" />
          </mxGeometry>
        </mxCell>
        <mxCell id="yvNfWJmXIzpKwHx-HULG-28" value="ST: หน้าห้องตรวจ&lt;br&gt;ส่งต่อ ST ผู้ป่วยไปห้อง จ่ายยา" style="rounded=1;whiteSpace=wrap;html=1;fontSize=12;glass=0;strokeWidth=1;shadow=0;fontFamily=space mono;fontSource=https%3A%2F%2Ffonts.googleapis.com%2Fcss%3Ffamily%3Dspace%2Bmono;" parent="WIyWlLk6GJQsqaUBKTNV-1" vertex="1">
          <mxGeometry x="1727" y="1188.75" width="200" height="52.5" as="geometry" />
        </mxCell>
        <mxCell id="yvNfWJmXIzpKwHx-HULG-29" value="Yes" style="edgeStyle=orthogonalEdgeStyle;rounded=0;html=1;jettySize=auto;orthogonalLoop=1;fontSize=11;endArrow=block;endFill=0;endSize=8;strokeWidth=1;shadow=0;labelBackgroundColor=none;fontFamily=space mono;fontSource=https%3A%2F%2Ffonts.googleapis.com%2Fcss%3Ffamily%3Dspace%2Bmono;exitX=1;exitY=0.5;exitDx=0;exitDy=0;" parent="WIyWlLk6GJQsqaUBKTNV-1" source="yvNfWJmXIzpKwHx-HULG-26" target="yvNfWJmXIzpKwHx-HULG-28" edge="1">
          <mxGeometry x="-0.0417" y="10" relative="1" as="geometry">
            <mxPoint as="offset" />
            <mxPoint x="1240" y="1068.75" as="sourcePoint" />
            <mxPoint x="1687" y="1318.75" as="targetPoint" />
          </mxGeometry>
        </mxCell>
        <mxCell id="yvNfWJmXIzpKwHx-HULG-30" value="&lt;font data-font-src=&quot;https://fonts.googleapis.com/css?family=space+mono&quot; face=&quot;space mono&quot;&gt;7&lt;/font&gt;" style="strokeWidth=2;html=1;shape=mxgraph.flowchart.start_2;whiteSpace=wrap;" parent="WIyWlLk6GJQsqaUBKTNV-1" vertex="1">
          <mxGeometry x="1581.5" y="1281.25" width="40" height="40" as="geometry" />
        </mxCell>
        <mxCell id="yvNfWJmXIzpKwHx-HULG-32" value="ST: การเงินผู้ป่วย&lt;br&gt;พิมพ์ใบเสร็จฯ, ใบแจ้งหนี้, ...&lt;br&gt;ใบนัดฯ, ส่งคิวผู้ป่วยไปห้องจ่ายยา" style="rounded=1;whiteSpace=wrap;html=1;fontSize=12;glass=0;strokeWidth=1;shadow=0;fontFamily=space mono;fontSource=https%3A%2F%2Ffonts.googleapis.com%2Fcss%3Ffamily%3Dspace%2Bmono;" parent="WIyWlLk6GJQsqaUBKTNV-1" vertex="1">
          <mxGeometry x="1501.5" y="1428.75" width="200" height="52.5" as="geometry" />
        </mxCell>
        <mxCell id="yvNfWJmXIzpKwHx-HULG-34" value="ST: ห้องจ่ายยา&lt;br&gt;จ่ายยา ให้คำแนะนำผู้ป่วย&lt;br&gt;ส่งคิวผู้ป่วย ST กลับบ้าน" style="rounded=1;whiteSpace=wrap;html=1;fontSize=12;glass=0;strokeWidth=1;shadow=0;fontFamily=space mono;fontSource=https%3A%2F%2Ffonts.googleapis.com%2Fcss%3Ffamily%3Dspace%2Bmono;" parent="WIyWlLk6GJQsqaUBKTNV-1" vertex="1">
          <mxGeometry x="1501.5" y="1508.75" width="200" height="52.5" as="geometry" />
        </mxCell>
        <mxCell id="yvNfWJmXIzpKwHx-HULG-35" style="edgeStyle=orthogonalEdgeStyle;rounded=0;orthogonalLoop=1;jettySize=auto;html=1;endArrow=block;endFill=0;entryX=0.5;entryY=0;entryDx=0;entryDy=0;exitX=0.5;exitY=1;exitDx=0;exitDy=0;exitPerimeter=0;" parent="WIyWlLk6GJQsqaUBKTNV-1" source="yvNfWJmXIzpKwHx-HULG-30" target="qahBIfakXGSAEwPWHKox-26" edge="1">
          <mxGeometry relative="1" as="geometry">
            <mxPoint x="1497" y="1224.75" as="sourcePoint" />
            <mxPoint x="1546" y="1224.75" as="targetPoint" />
          </mxGeometry>
        </mxCell>
        <mxCell id="yvNfWJmXIzpKwHx-HULG-36" style="edgeStyle=orthogonalEdgeStyle;rounded=0;orthogonalLoop=1;jettySize=auto;html=1;endArrow=block;endFill=0;entryX=1;entryY=0.5;entryDx=0;entryDy=0;exitX=0;exitY=0.5;exitDx=0;exitDy=0;entryPerimeter=0;" parent="WIyWlLk6GJQsqaUBKTNV-1" source="yvNfWJmXIzpKwHx-HULG-24" target="yvNfWJmXIzpKwHx-HULG-30" edge="1">
          <mxGeometry relative="1" as="geometry">
            <mxPoint x="1837" y="1251.75" as="sourcePoint" />
            <mxPoint x="1837" y="1284.75" as="targetPoint" />
          </mxGeometry>
        </mxCell>
        <mxCell id="yvNfWJmXIzpKwHx-HULG-38" style="edgeStyle=orthogonalEdgeStyle;rounded=0;orthogonalLoop=1;jettySize=auto;html=1;endArrow=block;endFill=0;entryX=0.5;entryY=0;entryDx=0;entryDy=0;exitX=0.5;exitY=1;exitDx=0;exitDy=0;" parent="WIyWlLk6GJQsqaUBKTNV-1" source="qahBIfakXGSAEwPWHKox-26" target="yvNfWJmXIzpKwHx-HULG-32" edge="1">
          <mxGeometry relative="1" as="geometry">
            <mxPoint x="1611" y="1331.75" as="sourcePoint" />
            <mxPoint x="1612" y="1358.75" as="targetPoint" />
          </mxGeometry>
        </mxCell>
        <mxCell id="yvNfWJmXIzpKwHx-HULG-39" style="edgeStyle=orthogonalEdgeStyle;rounded=0;orthogonalLoop=1;jettySize=auto;html=1;endArrow=block;endFill=0;exitX=0.5;exitY=1;exitDx=0;exitDy=0;entryX=0.5;entryY=0;entryDx=0;entryDy=0;" parent="WIyWlLk6GJQsqaUBKTNV-1" source="yvNfWJmXIzpKwHx-HULG-32" target="yvNfWJmXIzpKwHx-HULG-34" edge="1">
          <mxGeometry relative="1" as="geometry">
            <mxPoint x="1621" y="1341.75" as="sourcePoint" />
            <mxPoint x="1622" y="1368.75" as="targetPoint" />
          </mxGeometry>
        </mxCell>
        <mxCell id="yvNfWJmXIzpKwHx-HULG-40" value="ผู้ป่วยรับบริการเสร็จสิ้น" style="rounded=1;whiteSpace=wrap;html=1;fontSize=12;glass=0;strokeWidth=1;shadow=0;fontFamily=space mono;fontSource=https%3A%2F%2Ffonts.googleapis.com%2Fcss%3Ffamily%3Dspace%2Bmono;" parent="WIyWlLk6GJQsqaUBKTNV-1" vertex="1">
          <mxGeometry x="1501.5" y="1588.75" width="200" height="40" as="geometry" />
        </mxCell>
        <mxCell id="yvNfWJmXIzpKwHx-HULG-41" style="edgeStyle=orthogonalEdgeStyle;rounded=0;orthogonalLoop=1;jettySize=auto;html=1;endArrow=block;endFill=0;exitX=0.5;exitY=1;exitDx=0;exitDy=0;entryX=0.5;entryY=0;entryDx=0;entryDy=0;" parent="WIyWlLk6GJQsqaUBKTNV-1" source="yvNfWJmXIzpKwHx-HULG-34" target="yvNfWJmXIzpKwHx-HULG-40" edge="1">
          <mxGeometry relative="1" as="geometry">
            <mxPoint x="1612" y="1491.75" as="sourcePoint" />
            <mxPoint x="1612" y="1518.75" as="targetPoint" />
          </mxGeometry>
        </mxCell>
        <mxCell id="yvNfWJmXIzpKwHx-HULG-43" value="ST: ศูนย์ Admit ผู้ป่วยใน&lt;br&gt;Admit ผู้ป่วยเข้าห้องพัก-เตียง" style="rounded=1;whiteSpace=wrap;html=1;fontSize=12;glass=0;strokeWidth=1;shadow=0;fontFamily=space mono;fontSource=https%3A%2F%2Ffonts.googleapis.com%2Fcss%3Ffamily%3Dspace%2Bmono;" parent="WIyWlLk6GJQsqaUBKTNV-1" vertex="1">
          <mxGeometry x="60" y="2005" width="200" height="52.5" as="geometry" />
        </mxCell>
        <mxCell id="PeQBqCHpVeVmycIjUM5T-3" value="Order LAB?" style="rhombus;whiteSpace=wrap;html=1;shadow=0;fontFamily=space mono;fontSize=12;align=center;strokeWidth=1;spacing=6;spacingTop=-4;fontSource=https%3A%2F%2Ffonts.googleapis.com%2Fcss%3Ffamily%3Dspace%2Bmono;" vertex="1" parent="WIyWlLk6GJQsqaUBKTNV-1">
          <mxGeometry x="77" y="2323.75" width="166" height="60" as="geometry" />
        </mxCell>
        <mxCell id="PeQBqCHpVeVmycIjUM5T-4" value="Order X-ray?" style="rhombus;whiteSpace=wrap;html=1;shadow=0;fontFamily=space mono;fontSize=12;align=center;strokeWidth=1;spacing=6;spacingTop=-4;fontSource=https%3A%2F%2Ffonts.googleapis.com%2Fcss%3Ffamily%3Dspace%2Bmono;" vertex="1" parent="WIyWlLk6GJQsqaUBKTNV-1">
          <mxGeometry x="77" y="2423.75" width="166" height="60" as="geometry" />
        </mxCell>
        <mxCell id="PeQBqCHpVeVmycIjUM5T-5" value="Order หัตถการ?" style="rhombus;whiteSpace=wrap;html=1;shadow=0;fontFamily=space mono;fontSize=12;align=center;strokeWidth=1;spacing=6;spacingTop=-4;fontSource=https%3A%2F%2Ffonts.googleapis.com%2Fcss%3Ffamily%3Dspace%2Bmono;" vertex="1" parent="WIyWlLk6GJQsqaUBKTNV-1">
          <mxGeometry x="77" y="2525.75" width="166" height="60" as="geometry" />
        </mxCell>
        <mxCell id="PeQBqCHpVeVmycIjUM5T-7" value="No" style="rounded=0;html=1;jettySize=auto;orthogonalLoop=1;fontSize=11;endArrow=block;endFill=0;endSize=8;strokeWidth=1;shadow=0;labelBackgroundColor=none;edgeStyle=orthogonalEdgeStyle;fontFamily=space mono;fontSource=https%3A%2F%2Ffonts.googleapis.com%2Fcss%3Ffamily%3Dspace%2Bmono;exitX=0.5;exitY=1;exitDx=0;exitDy=0;entryX=0.5;entryY=0;entryDx=0;entryDy=0;" edge="1" parent="WIyWlLk6GJQsqaUBKTNV-1" source="PeQBqCHpVeVmycIjUM5T-3" target="PeQBqCHpVeVmycIjUM5T-4">
          <mxGeometry y="13" relative="1" as="geometry">
            <mxPoint as="offset" />
            <mxPoint x="155.71000000000004" y="2243.75" as="sourcePoint" />
            <mxPoint x="155.71000000000004" y="2353.75" as="targetPoint" />
          </mxGeometry>
        </mxCell>
        <mxCell id="PeQBqCHpVeVmycIjUM5T-8" value="No" style="rounded=0;html=1;jettySize=auto;orthogonalLoop=1;fontSize=11;endArrow=block;endFill=0;endSize=8;strokeWidth=1;shadow=0;labelBackgroundColor=none;edgeStyle=orthogonalEdgeStyle;fontFamily=space mono;fontSource=https%3A%2F%2Ffonts.googleapis.com%2Fcss%3Ffamily%3Dspace%2Bmono;entryX=0.5;entryY=0;entryDx=0;entryDy=0;exitX=0.5;exitY=1;exitDx=0;exitDy=0;" edge="1" parent="WIyWlLk6GJQsqaUBKTNV-1" source="PeQBqCHpVeVmycIjUM5T-4" target="PeQBqCHpVeVmycIjUM5T-5">
          <mxGeometry y="13" relative="1" as="geometry">
            <mxPoint as="offset" />
            <mxPoint x="156" y="2483.75" as="sourcePoint" />
            <mxPoint x="166" y="2433.75" as="targetPoint" />
          </mxGeometry>
        </mxCell>
        <mxCell id="PeQBqCHpVeVmycIjUM5T-9" value="No" style="rounded=0;html=1;jettySize=auto;orthogonalLoop=1;fontSize=11;endArrow=block;endFill=0;endSize=8;strokeWidth=1;shadow=0;labelBackgroundColor=none;edgeStyle=orthogonalEdgeStyle;fontFamily=space mono;fontSource=https%3A%2F%2Ffonts.googleapis.com%2Fcss%3Ffamily%3Dspace%2Bmono;exitX=0.5;exitY=1;exitDx=0;exitDy=0;entryX=0.5;entryY=0;entryDx=0;entryDy=0;" edge="1" parent="WIyWlLk6GJQsqaUBKTNV-1" source="PeQBqCHpVeVmycIjUM5T-5" target="PeQBqCHpVeVmycIjUM5T-93">
          <mxGeometry y="13" relative="1" as="geometry">
            <mxPoint as="offset" />
            <mxPoint x="166" y="2495.75" as="sourcePoint" />
            <mxPoint x="158.99999999999977" y="2629.5" as="targetPoint" />
          </mxGeometry>
        </mxCell>
        <mxCell id="PeQBqCHpVeVmycIjUM5T-11" value="Yes" style="edgeStyle=orthogonalEdgeStyle;rounded=0;html=1;jettySize=auto;orthogonalLoop=1;fontSize=11;endArrow=block;endFill=0;endSize=8;strokeWidth=1;shadow=0;labelBackgroundColor=none;fontFamily=space mono;fontSource=https%3A%2F%2Ffonts.googleapis.com%2Fcss%3Ffamily%3Dspace%2Bmono;exitX=1;exitY=0.5;exitDx=0;exitDy=0;entryX=0;entryY=0.5;entryDx=0;entryDy=0;" edge="1" parent="WIyWlLk6GJQsqaUBKTNV-1" source="PeQBqCHpVeVmycIjUM5T-3" target="PeQBqCHpVeVmycIjUM5T-17">
          <mxGeometry x="-0.1591" y="19" relative="1" as="geometry">
            <mxPoint as="offset" />
            <mxPoint x="258" y="2243.75" as="sourcePoint" />
            <mxPoint x="318" y="2223.75" as="targetPoint" />
          </mxGeometry>
        </mxCell>
        <mxCell id="PeQBqCHpVeVmycIjUM5T-16" value="&lt;font data-font-src=&quot;https://fonts.googleapis.com/css?family=space+mono&quot; face=&quot;space mono&quot;&gt;9&lt;/font&gt;" style="strokeWidth=2;html=1;shape=mxgraph.flowchart.start_2;whiteSpace=wrap;" vertex="1" parent="WIyWlLk6GJQsqaUBKTNV-1">
          <mxGeometry x="389" y="2895" width="40" height="40" as="geometry" />
        </mxCell>
        <mxCell id="PeQBqCHpVeVmycIjUM5T-17" value="ST: พยาบาลผู้ป่วยใน/ห้อง Lab&lt;br&gt;&amp;nbsp;รคส.แพทย์, เก็บ Specimen,&lt;br&gt;Key Order" style="rounded=1;whiteSpace=wrap;html=1;fontSize=12;glass=0;strokeWidth=1;shadow=0;fontFamily=space mono;fontSource=https%3A%2F%2Ffonts.googleapis.com%2Fcss%3Ffamily%3Dspace%2Bmono;" vertex="1" parent="WIyWlLk6GJQsqaUBKTNV-1">
          <mxGeometry x="309.5" y="2327.5" width="200" height="52.5" as="geometry" />
        </mxCell>
        <mxCell id="PeQBqCHpVeVmycIjUM5T-18" value="ST: ห้อง Lab&lt;br&gt;รคส.แพทย์, เก็บ Specimen,&lt;br&gt;ส่งต่อ ST อื่นหรือหน้าห้องตรวจ" style="rounded=1;whiteSpace=wrap;html=1;fontSize=12;glass=0;strokeWidth=1;shadow=0;fontFamily=space mono;fontSource=https%3A%2F%2Ffonts.googleapis.com%2Fcss%3Ffamily%3Dspace%2Bmono;" vertex="1" parent="WIyWlLk6GJQsqaUBKTNV-1">
          <mxGeometry x="559" y="2327.5" width="200" height="52.5" as="geometry" />
        </mxCell>
        <mxCell id="PeQBqCHpVeVmycIjUM5T-19" value="ST: ห้อง Lab&lt;br&gt;Request Order ไปที่ระบบ LIS&lt;br&gt;บันทึกผล Lab ที่อ่านค่าได้" style="rounded=1;whiteSpace=wrap;html=1;fontSize=12;glass=0;strokeWidth=1;shadow=0;fontFamily=space mono;fontSource=https%3A%2F%2Ffonts.googleapis.com%2Fcss%3Ffamily%3Dspace%2Bmono;" vertex="1" parent="WIyWlLk6GJQsqaUBKTNV-1">
          <mxGeometry x="799" y="2327.5" width="200" height="52.5" as="geometry" />
        </mxCell>
        <mxCell id="PeQBqCHpVeVmycIjUM5T-20" style="edgeStyle=orthogonalEdgeStyle;rounded=0;orthogonalLoop=1;jettySize=auto;html=1;endArrow=block;endFill=0;entryX=0;entryY=0.5;entryDx=0;entryDy=0;exitX=1;exitY=0.5;exitDx=0;exitDy=0;" edge="1" parent="WIyWlLk6GJQsqaUBKTNV-1" source="PeQBqCHpVeVmycIjUM5T-18" target="PeQBqCHpVeVmycIjUM5T-19">
          <mxGeometry relative="1" as="geometry">
            <mxPoint x="759" y="2353.75" as="sourcePoint" />
            <mxPoint x="-30" y="2408.75" as="targetPoint" />
          </mxGeometry>
        </mxCell>
        <mxCell id="PeQBqCHpVeVmycIjUM5T-21" value="&lt;font data-font-src=&quot;https://fonts.googleapis.com/css?family=space+mono&quot; face=&quot;space mono&quot;&gt;4&lt;/font&gt;" style="strokeWidth=2;html=1;shape=mxgraph.flowchart.start_2;whiteSpace=wrap;" vertex="1" parent="WIyWlLk6GJQsqaUBKTNV-1">
          <mxGeometry x="140" y="1940" width="40" height="40" as="geometry" />
        </mxCell>
        <mxCell id="PeQBqCHpVeVmycIjUM5T-23" value="ST: พยาบาลผู้ป่วยใน&lt;br&gt;บันทึกกิจกรรมพยาบาลในแต่ละวัน,&lt;br&gt;ค่าใช้จ่ายที่เกิดขึ้น" style="rounded=1;whiteSpace=wrap;html=1;fontSize=12;glass=0;strokeWidth=1;shadow=0;fontFamily=space mono;fontSource=https%3A%2F%2Ffonts.googleapis.com%2Fcss%3Ffamily%3Dspace%2Bmono;" vertex="1" parent="WIyWlLk6GJQsqaUBKTNV-1">
          <mxGeometry x="60" y="2155" width="200" height="52.5" as="geometry" />
        </mxCell>
        <mxCell id="PeQBqCHpVeVmycIjUM5T-24" value="แพทย์ผู้ป่วยใน&lt;br&gt;ตรวจอาการผู้ป่วยในแต่ละวัน&lt;br&gt;เขียนคำสั่งลง Doctor Order" style="rounded=1;whiteSpace=wrap;html=1;fontSize=12;glass=0;strokeWidth=1;shadow=0;fontFamily=space mono;fontSource=https%3A%2F%2Ffonts.googleapis.com%2Fcss%3Ffamily%3Dspace%2Bmono;" vertex="1" parent="WIyWlLk6GJQsqaUBKTNV-1">
          <mxGeometry x="60" y="2235" width="200" height="52.5" as="geometry" />
        </mxCell>
        <mxCell id="PeQBqCHpVeVmycIjUM5T-39" value="ST: พยาบาลผู้ป่วยใน/ห้อง Lab&lt;br&gt;&amp;nbsp;รคส.แพทย์, เก็บ Specimen,&lt;br&gt;Key Order" style="rounded=1;whiteSpace=wrap;html=1;fontSize=12;glass=0;strokeWidth=1;shadow=0;fontFamily=space mono;fontSource=https%3A%2F%2Ffonts.googleapis.com%2Fcss%3Ffamily%3Dspace%2Bmono;" vertex="1" parent="WIyWlLk6GJQsqaUBKTNV-1">
          <mxGeometry x="309.5" y="2327.5" width="200" height="52.5" as="geometry" />
        </mxCell>
        <mxCell id="PeQBqCHpVeVmycIjUM5T-40" value="ST: ห้อง Lab&lt;br&gt;รคส.แพทย์, เก็บ Specimen" style="rounded=1;whiteSpace=wrap;html=1;fontSize=12;glass=0;strokeWidth=1;shadow=0;fontFamily=space mono;fontSource=https%3A%2F%2Ffonts.googleapis.com%2Fcss%3Ffamily%3Dspace%2Bmono;" vertex="1" parent="WIyWlLk6GJQsqaUBKTNV-1">
          <mxGeometry x="559" y="2327.5" width="200" height="52.5" as="geometry" />
        </mxCell>
        <mxCell id="PeQBqCHpVeVmycIjUM5T-42" style="edgeStyle=orthogonalEdgeStyle;rounded=0;orthogonalLoop=1;jettySize=auto;html=1;endArrow=block;endFill=0;entryX=0;entryY=0.5;entryDx=0;entryDy=0;exitX=1;exitY=0.5;exitDx=0;exitDy=0;" edge="1" parent="WIyWlLk6GJQsqaUBKTNV-1" source="PeQBqCHpVeVmycIjUM5T-39" target="PeQBqCHpVeVmycIjUM5T-40">
          <mxGeometry relative="1" as="geometry">
            <mxPoint x="769" y="2363.75" as="sourcePoint" />
            <mxPoint x="809" y="2363.75" as="targetPoint" />
          </mxGeometry>
        </mxCell>
        <mxCell id="PeQBqCHpVeVmycIjUM5T-43" value="ST: พยาบาลผู้ป่วยใน/ห้อง X-ray&lt;br&gt;&amp;nbsp;รคส.แพทย์,&amp;nbsp;Key Order" style="rounded=1;whiteSpace=wrap;html=1;fontSize=12;glass=0;strokeWidth=1;shadow=0;fontFamily=space mono;fontSource=https%3A%2F%2Ffonts.googleapis.com%2Fcss%3Ffamily%3Dspace%2Bmono;" vertex="1" parent="WIyWlLk6GJQsqaUBKTNV-1">
          <mxGeometry x="309.5" y="2427.5" width="200" height="52.5" as="geometry" />
        </mxCell>
        <mxCell id="PeQBqCHpVeVmycIjUM5T-44" value="Yes" style="edgeStyle=orthogonalEdgeStyle;rounded=0;html=1;jettySize=auto;orthogonalLoop=1;fontSize=11;endArrow=block;endFill=0;endSize=8;strokeWidth=1;shadow=0;labelBackgroundColor=none;fontFamily=space mono;fontSource=https%3A%2F%2Ffonts.googleapis.com%2Fcss%3Ffamily%3Dspace%2Bmono;exitX=1;exitY=0.5;exitDx=0;exitDy=0;entryX=0;entryY=0.5;entryDx=0;entryDy=0;" edge="1" parent="WIyWlLk6GJQsqaUBKTNV-1" source="PeQBqCHpVeVmycIjUM5T-4" target="PeQBqCHpVeVmycIjUM5T-43">
          <mxGeometry x="-0.1591" y="19" relative="1" as="geometry">
            <mxPoint as="offset" />
            <mxPoint x="252" y="2363.75" as="sourcePoint" />
            <mxPoint x="309" y="2453.75" as="targetPoint" />
          </mxGeometry>
        </mxCell>
        <mxCell id="PeQBqCHpVeVmycIjUM5T-46" value="ST: ห้อง X-ray&lt;br&gt;รคส.แพทย์, นำผู้ป่วยไปทำกิจกรรม" style="rounded=1;whiteSpace=wrap;html=1;fontSize=12;glass=0;strokeWidth=1;shadow=0;fontFamily=space mono;fontSource=https%3A%2F%2Ffonts.googleapis.com%2Fcss%3Ffamily%3Dspace%2Bmono;" vertex="1" parent="WIyWlLk6GJQsqaUBKTNV-1">
          <mxGeometry x="559" y="2427.5" width="200" height="52.5" as="geometry" />
        </mxCell>
        <mxCell id="PeQBqCHpVeVmycIjUM5T-47" value="ST: ห้อง X-ray&lt;br&gt;Request Order ไปที่ระบบ PAC&lt;br&gt;บันทึกผล X-ray ที่อ่านค่าได้" style="rounded=1;whiteSpace=wrap;html=1;fontSize=12;glass=0;strokeWidth=1;shadow=0;fontFamily=space mono;fontSource=https%3A%2F%2Ffonts.googleapis.com%2Fcss%3Ffamily%3Dspace%2Bmono;" vertex="1" parent="WIyWlLk6GJQsqaUBKTNV-1">
          <mxGeometry x="799" y="2427.5" width="200" height="52.5" as="geometry" />
        </mxCell>
        <mxCell id="PeQBqCHpVeVmycIjUM5T-48" style="edgeStyle=orthogonalEdgeStyle;rounded=0;orthogonalLoop=1;jettySize=auto;html=1;endArrow=block;endFill=0;entryX=0;entryY=0.5;entryDx=0;entryDy=0;exitX=1;exitY=0.5;exitDx=0;exitDy=0;" edge="1" parent="WIyWlLk6GJQsqaUBKTNV-1" source="PeQBqCHpVeVmycIjUM5T-43" target="PeQBqCHpVeVmycIjUM5T-46">
          <mxGeometry relative="1" as="geometry">
            <mxPoint x="520" y="2363.75" as="sourcePoint" />
            <mxPoint x="569" y="2363.75" as="targetPoint" />
          </mxGeometry>
        </mxCell>
        <mxCell id="PeQBqCHpVeVmycIjUM5T-49" style="edgeStyle=orthogonalEdgeStyle;rounded=0;orthogonalLoop=1;jettySize=auto;html=1;endArrow=block;endFill=0;entryX=0;entryY=0.5;entryDx=0;entryDy=0;exitX=1;exitY=0.5;exitDx=0;exitDy=0;" edge="1" parent="WIyWlLk6GJQsqaUBKTNV-1" source="PeQBqCHpVeVmycIjUM5T-46" target="PeQBqCHpVeVmycIjUM5T-47">
          <mxGeometry relative="1" as="geometry">
            <mxPoint x="530" y="2373.75" as="sourcePoint" />
            <mxPoint x="579" y="2373.75" as="targetPoint" />
          </mxGeometry>
        </mxCell>
        <mxCell id="PeQBqCHpVeVmycIjUM5T-50" value="ST: ห้องที่ต้องทำการ...&lt;br&gt;ทำหัตถการแพทย์-กิจกรรมพยาบาล" style="rounded=1;whiteSpace=wrap;html=1;fontSize=12;glass=0;strokeWidth=1;shadow=0;fontFamily=space mono;fontSource=https%3A%2F%2Ffonts.googleapis.com%2Fcss%3Ffamily%3Dspace%2Bmono;" vertex="1" parent="WIyWlLk6GJQsqaUBKTNV-1">
          <mxGeometry x="559" y="2529.5" width="200" height="52.5" as="geometry" />
        </mxCell>
        <mxCell id="PeQBqCHpVeVmycIjUM5T-51" value="ST: ห้องที่ต้องทำการ...&lt;br&gt;บันทึกทำหัตการ ค่าใช้จ่ายที่เพิ่มเติม" style="rounded=1;whiteSpace=wrap;html=1;fontSize=12;glass=0;strokeWidth=1;shadow=0;fontFamily=space mono;fontSource=https%3A%2F%2Ffonts.googleapis.com%2Fcss%3Ffamily%3Dspace%2Bmono;" vertex="1" parent="WIyWlLk6GJQsqaUBKTNV-1">
          <mxGeometry x="799" y="2529.5" width="200" height="52.5" as="geometry" />
        </mxCell>
        <mxCell id="PeQBqCHpVeVmycIjUM5T-52" style="edgeStyle=orthogonalEdgeStyle;rounded=0;orthogonalLoop=1;jettySize=auto;html=1;endArrow=block;endFill=0;entryX=0;entryY=0.5;entryDx=0;entryDy=0;exitX=1;exitY=0.5;exitDx=0;exitDy=0;" edge="1" parent="WIyWlLk6GJQsqaUBKTNV-1" source="PeQBqCHpVeVmycIjUM5T-50" target="PeQBqCHpVeVmycIjUM5T-51">
          <mxGeometry relative="1" as="geometry">
            <mxPoint x="759" y="2555.75" as="sourcePoint" />
            <mxPoint x="-30" y="2610.75" as="targetPoint" />
          </mxGeometry>
        </mxCell>
        <mxCell id="PeQBqCHpVeVmycIjUM5T-53" value="ST: พยาบาลผู้ป่วยใน&lt;br&gt;&amp;nbsp;รคส.แพทย์, ประสานงาน-เตรียม&lt;br&gt;ห้องทำหัตถการ,&amp;nbsp;Key Order" style="rounded=1;whiteSpace=wrap;html=1;fontSize=12;glass=0;strokeWidth=1;shadow=0;fontFamily=space mono;fontSource=https%3A%2F%2Ffonts.googleapis.com%2Fcss%3Ffamily%3Dspace%2Bmono;" vertex="1" parent="WIyWlLk6GJQsqaUBKTNV-1">
          <mxGeometry x="309.5" y="2529.5" width="200" height="52.5" as="geometry" />
        </mxCell>
        <mxCell id="PeQBqCHpVeVmycIjUM5T-54" value="Yes" style="edgeStyle=orthogonalEdgeStyle;rounded=0;html=1;jettySize=auto;orthogonalLoop=1;fontSize=11;endArrow=block;endFill=0;endSize=8;strokeWidth=1;shadow=0;labelBackgroundColor=none;fontFamily=space mono;fontSource=https%3A%2F%2Ffonts.googleapis.com%2Fcss%3Ffamily%3Dspace%2Bmono;entryX=0;entryY=0.5;entryDx=0;entryDy=0;" edge="1" parent="WIyWlLk6GJQsqaUBKTNV-1" source="PeQBqCHpVeVmycIjUM5T-5" target="PeQBqCHpVeVmycIjUM5T-53">
          <mxGeometry x="-0.1591" y="19" relative="1" as="geometry">
            <mxPoint as="offset" />
            <mxPoint x="252" y="2463.75" as="sourcePoint" />
            <mxPoint x="320" y="2463.75" as="targetPoint" />
          </mxGeometry>
        </mxCell>
        <mxCell id="PeQBqCHpVeVmycIjUM5T-56" style="edgeStyle=orthogonalEdgeStyle;rounded=0;orthogonalLoop=1;jettySize=auto;html=1;endArrow=block;endFill=0;entryX=0;entryY=0.5;entryDx=0;entryDy=0;exitX=1;exitY=0.5;exitDx=0;exitDy=0;" edge="1" parent="WIyWlLk6GJQsqaUBKTNV-1" source="PeQBqCHpVeVmycIjUM5T-53" target="PeQBqCHpVeVmycIjUM5T-50">
          <mxGeometry relative="1" as="geometry">
            <mxPoint x="520" y="2467.5" as="sourcePoint" />
            <mxPoint x="569" y="2467.5" as="targetPoint" />
          </mxGeometry>
        </mxCell>
        <mxCell id="PeQBqCHpVeVmycIjUM5T-59" value="ยา STAT/&lt;br&gt;One Day?" style="rhombus;whiteSpace=wrap;html=1;shadow=0;fontFamily=space mono;fontSize=12;align=center;strokeWidth=1;spacing=6;spacingTop=-4;fontSource=https%3A%2F%2Ffonts.googleapis.com%2Fcss%3Ffamily%3Dspace%2Bmono;" vertex="1" parent="WIyWlLk6GJQsqaUBKTNV-1">
          <mxGeometry x="559" y="2625.75" width="166" height="60" as="geometry" />
        </mxCell>
        <mxCell id="PeQBqCHpVeVmycIjUM5T-64" value="ST: ห้องยาผู้ป่วยใน&lt;br&gt;&amp;nbsp;รคส.แพทย์,&amp;nbsp;Key Order, &lt;br&gt;ตรวจสอบใบสั่งยา" style="rounded=1;whiteSpace=wrap;html=1;fontSize=12;glass=0;strokeWidth=1;shadow=0;fontFamily=space mono;fontSource=https%3A%2F%2Ffonts.googleapis.com%2Fcss%3Ffamily%3Dspace%2Bmono;" vertex="1" parent="WIyWlLk6GJQsqaUBKTNV-1">
          <mxGeometry x="309.5" y="2629.5" width="200" height="52.5" as="geometry" />
        </mxCell>
        <mxCell id="PeQBqCHpVeVmycIjUM5T-65" style="edgeStyle=orthogonalEdgeStyle;rounded=0;orthogonalLoop=1;jettySize=auto;html=1;endArrow=block;endFill=0;entryX=0;entryY=0.5;entryDx=0;entryDy=0;exitX=1;exitY=0.5;exitDx=0;exitDy=0;" edge="1" parent="WIyWlLk6GJQsqaUBKTNV-1" source="PeQBqCHpVeVmycIjUM5T-64" target="PeQBqCHpVeVmycIjUM5T-59">
          <mxGeometry relative="1" as="geometry">
            <mxPoint x="520" y="2565.75" as="sourcePoint" />
            <mxPoint x="569" y="2565.75" as="targetPoint" />
          </mxGeometry>
        </mxCell>
        <mxCell id="PeQBqCHpVeVmycIjUM5T-66" value="No" style="rounded=0;html=1;jettySize=auto;orthogonalLoop=1;fontSize=11;endArrow=block;endFill=0;endSize=8;strokeWidth=1;shadow=0;labelBackgroundColor=none;edgeStyle=orthogonalEdgeStyle;fontFamily=space mono;fontSource=https%3A%2F%2Ffonts.googleapis.com%2Fcss%3Ffamily%3Dspace%2Bmono;entryX=0.5;entryY=0;entryDx=0;entryDy=0;exitX=0.5;exitY=1;exitDx=0;exitDy=0;" edge="1" parent="WIyWlLk6GJQsqaUBKTNV-1" source="PeQBqCHpVeVmycIjUM5T-59" target="PeQBqCHpVeVmycIjUM5T-68">
          <mxGeometry y="13" relative="1" as="geometry">
            <mxPoint as="offset" />
            <mxPoint x="642" y="2688.75" as="sourcePoint" />
            <mxPoint x="642" y="2718.75" as="targetPoint" />
          </mxGeometry>
        </mxCell>
        <mxCell id="PeQBqCHpVeVmycIjUM5T-68" value="ยา Continue" style="rounded=1;whiteSpace=wrap;html=1;fontSize=12;glass=0;strokeWidth=1;shadow=0;fontFamily=space mono;fontSource=https%3A%2F%2Ffonts.googleapis.com%2Fcss%3Ffamily%3Dspace%2Bmono;" vertex="1" parent="WIyWlLk6GJQsqaUBKTNV-1">
          <mxGeometry x="565" y="2729.25" width="154" height="39.5" as="geometry" />
        </mxCell>
        <mxCell id="PeQBqCHpVeVmycIjUM5T-70" value="ST: ห้องยาผู้ป่วยใน&lt;br&gt;สร้าง Drug Profile ในระบบ" style="rounded=1;whiteSpace=wrap;html=1;fontSize=12;glass=0;strokeWidth=1;shadow=0;fontFamily=space mono;fontSource=https%3A%2F%2Ffonts.googleapis.com%2Fcss%3Ffamily%3Dspace%2Bmono;" vertex="1" parent="WIyWlLk6GJQsqaUBKTNV-1">
          <mxGeometry x="799" y="2629.5" width="200" height="52.5" as="geometry" />
        </mxCell>
        <mxCell id="PeQBqCHpVeVmycIjUM5T-71" style="edgeStyle=orthogonalEdgeStyle;rounded=0;orthogonalLoop=1;jettySize=auto;html=1;endArrow=block;endFill=0;entryX=0;entryY=0.5;entryDx=0;entryDy=0;exitX=1;exitY=0.5;exitDx=0;exitDy=0;" edge="1" parent="WIyWlLk6GJQsqaUBKTNV-1" source="PeQBqCHpVeVmycIjUM5T-59" target="PeQBqCHpVeVmycIjUM5T-70">
          <mxGeometry relative="1" as="geometry">
            <mxPoint x="769" y="2565.75" as="sourcePoint" />
            <mxPoint x="809" y="2565.75" as="targetPoint" />
          </mxGeometry>
        </mxCell>
        <mxCell id="PeQBqCHpVeVmycIjUM5T-72" value="ST: ห้องยาผู้ป่วยใน&lt;br&gt;สร้าง Drug Profile ในระบบ, &lt;br&gt;ตรวจสอบแก้ไขรายการยา" style="rounded=1;whiteSpace=wrap;html=1;fontSize=12;glass=0;strokeWidth=1;shadow=0;fontFamily=space mono;fontSource=https%3A%2F%2Ffonts.googleapis.com%2Fcss%3Ffamily%3Dspace%2Bmono;" vertex="1" parent="WIyWlLk6GJQsqaUBKTNV-1">
          <mxGeometry x="542" y="2798.75" width="200" height="52.5" as="geometry" />
        </mxCell>
        <mxCell id="PeQBqCHpVeVmycIjUM5T-73" style="edgeStyle=orthogonalEdgeStyle;rounded=0;orthogonalLoop=1;jettySize=auto;html=1;endArrow=block;endFill=0;entryX=0.5;entryY=0;entryDx=0;entryDy=0;" edge="1" parent="WIyWlLk6GJQsqaUBKTNV-1" target="PeQBqCHpVeVmycIjUM5T-72">
          <mxGeometry relative="1" as="geometry">
            <mxPoint x="642" y="2768.75" as="sourcePoint" />
            <mxPoint x="569" y="2665.75" as="targetPoint" />
          </mxGeometry>
        </mxCell>
        <mxCell id="PeQBqCHpVeVmycIjUM5T-74" value="ST: ห้องยาผู้ป่วยใน&lt;br&gt;จัดเตรียมยาตาม Profile, &lt;br&gt;ส่งยาไปที่หอผู้ป่วย" style="rounded=1;whiteSpace=wrap;html=1;fontSize=12;glass=0;strokeWidth=1;shadow=0;fontFamily=space mono;fontSource=https%3A%2F%2Ffonts.googleapis.com%2Fcss%3Ffamily%3Dspace%2Bmono;" vertex="1" parent="WIyWlLk6GJQsqaUBKTNV-1">
          <mxGeometry x="799" y="2798.75" width="200" height="52.5" as="geometry" />
        </mxCell>
        <mxCell id="PeQBqCHpVeVmycIjUM5T-75" value="&lt;font data-font-src=&quot;https://fonts.googleapis.com/css?family=space+mono&quot; face=&quot;space mono&quot;&gt;8&lt;/font&gt;" style="strokeWidth=2;html=1;shape=mxgraph.flowchart.start_2;whiteSpace=wrap;" vertex="1" parent="WIyWlLk6GJQsqaUBKTNV-1">
          <mxGeometry x="879" y="2722.75" width="40" height="40" as="geometry" />
        </mxCell>
        <mxCell id="PeQBqCHpVeVmycIjUM5T-76" style="edgeStyle=orthogonalEdgeStyle;rounded=0;orthogonalLoop=1;jettySize=auto;html=1;endArrow=block;endFill=0;entryX=0;entryY=0.5;entryDx=0;entryDy=0;exitX=1;exitY=0.5;exitDx=0;exitDy=0;entryPerimeter=0;" edge="1" parent="WIyWlLk6GJQsqaUBKTNV-1" source="PeQBqCHpVeVmycIjUM5T-72" target="PeQBqCHpVeVmycIjUM5T-75">
          <mxGeometry relative="1" as="geometry">
            <mxPoint x="652" y="2778.75" as="sourcePoint" />
            <mxPoint x="652" y="2808.75" as="targetPoint" />
            <Array as="points">
              <mxPoint x="769" y="2824.75" />
              <mxPoint x="769" y="2742.75" />
            </Array>
          </mxGeometry>
        </mxCell>
        <mxCell id="PeQBqCHpVeVmycIjUM5T-77" style="edgeStyle=orthogonalEdgeStyle;rounded=0;orthogonalLoop=1;jettySize=auto;html=1;endArrow=block;endFill=0;entryX=0.5;entryY=0;entryDx=0;entryDy=0;exitX=0.5;exitY=1;exitDx=0;exitDy=0;exitPerimeter=0;" edge="1" parent="WIyWlLk6GJQsqaUBKTNV-1" source="PeQBqCHpVeVmycIjUM5T-75" target="PeQBqCHpVeVmycIjUM5T-74">
          <mxGeometry relative="1" as="geometry">
            <mxPoint x="652" y="2778.75" as="sourcePoint" />
            <mxPoint x="652" y="2808.75" as="targetPoint" />
          </mxGeometry>
        </mxCell>
        <mxCell id="PeQBqCHpVeVmycIjUM5T-78" style="edgeStyle=orthogonalEdgeStyle;rounded=0;orthogonalLoop=1;jettySize=auto;html=1;endArrow=block;endFill=0;entryX=0.5;entryY=0;entryDx=0;entryDy=0;exitX=0.5;exitY=1;exitDx=0;exitDy=0;entryPerimeter=0;" edge="1" parent="WIyWlLk6GJQsqaUBKTNV-1" source="PeQBqCHpVeVmycIjUM5T-70" target="PeQBqCHpVeVmycIjUM5T-75">
          <mxGeometry relative="1" as="geometry">
            <mxPoint x="910" y="2772.75" as="sourcePoint" />
            <mxPoint x="910" y="2808.75" as="targetPoint" />
          </mxGeometry>
        </mxCell>
        <mxCell id="PeQBqCHpVeVmycIjUM5T-81" value="ST: พยาบาลผู้ป่วยใน&lt;br&gt;&amp;nbsp;ตรวจสอบรายการยา, &lt;br&gt;จ่ายยาให้ผู้ป่วยตามมื้อ-ช่วงเวลา" style="rounded=1;whiteSpace=wrap;html=1;fontSize=12;glass=0;strokeWidth=1;shadow=0;fontFamily=space mono;fontSource=https%3A%2F%2Ffonts.googleapis.com%2Fcss%3Ffamily%3Dspace%2Bmono;" vertex="1" parent="WIyWlLk6GJQsqaUBKTNV-1">
          <mxGeometry x="542" y="2888.75" width="200" height="52.5" as="geometry" />
        </mxCell>
        <mxCell id="PeQBqCHpVeVmycIjUM5T-82" style="rounded=0;orthogonalLoop=1;jettySize=auto;html=1;endArrow=block;endFill=0;entryX=0.5;entryY=0;entryDx=0;entryDy=0;exitX=0.5;exitY=1;exitDx=0;exitDy=0;dashed=1;" edge="1" parent="WIyWlLk6GJQsqaUBKTNV-1" source="PeQBqCHpVeVmycIjUM5T-39" target="PeQBqCHpVeVmycIjUM5T-43">
          <mxGeometry relative="1" as="geometry">
            <mxPoint x="399" y="2388.75" as="sourcePoint" />
            <mxPoint x="399" y="2436.75" as="targetPoint" />
          </mxGeometry>
        </mxCell>
        <mxCell id="PeQBqCHpVeVmycIjUM5T-83" value="What if" style="edgeLabel;html=1;align=center;verticalAlign=middle;resizable=0;points=[];fontFamily=space mono;fontSource=https%3A%2F%2Ffonts.googleapis.com%2Fcss%3Ffamily%3Dspace%2Bmono;" vertex="1" connectable="0" parent="PeQBqCHpVeVmycIjUM5T-82">
          <mxGeometry x="0.288" y="-1" relative="1" as="geometry">
            <mxPoint x="31" y="-7" as="offset" />
          </mxGeometry>
        </mxCell>
        <mxCell id="PeQBqCHpVeVmycIjUM5T-84" style="rounded=0;orthogonalLoop=1;jettySize=auto;html=1;endArrow=block;endFill=0;exitX=0.5;exitY=1;exitDx=0;exitDy=0;dashed=1;entryX=0.5;entryY=0;entryDx=0;entryDy=0;" edge="1" parent="WIyWlLk6GJQsqaUBKTNV-1" source="PeQBqCHpVeVmycIjUM5T-43" target="PeQBqCHpVeVmycIjUM5T-53">
          <mxGeometry relative="1" as="geometry">
            <mxPoint x="399" y="2480.75" as="sourcePoint" />
            <mxPoint x="409" y="2498.75" as="targetPoint" />
          </mxGeometry>
        </mxCell>
        <mxCell id="PeQBqCHpVeVmycIjUM5T-85" value="What if" style="edgeLabel;html=1;align=center;verticalAlign=middle;resizable=0;points=[];fontFamily=space mono;fontSource=https%3A%2F%2Ffonts.googleapis.com%2Fcss%3Ffamily%3Dspace%2Bmono;" vertex="1" connectable="0" parent="PeQBqCHpVeVmycIjUM5T-84">
          <mxGeometry x="0.288" y="-1" relative="1" as="geometry">
            <mxPoint x="31" y="-7" as="offset" />
          </mxGeometry>
        </mxCell>
        <mxCell id="PeQBqCHpVeVmycIjUM5T-87" style="rounded=0;orthogonalLoop=1;jettySize=auto;html=1;endArrow=block;endFill=0;exitX=0.5;exitY=1;exitDx=0;exitDy=0;dashed=1;entryX=0.5;entryY=0;entryDx=0;entryDy=0;" edge="1" parent="WIyWlLk6GJQsqaUBKTNV-1" source="PeQBqCHpVeVmycIjUM5T-53" target="PeQBqCHpVeVmycIjUM5T-64">
          <mxGeometry relative="1" as="geometry">
            <mxPoint x="420" y="2489.75" as="sourcePoint" />
            <mxPoint x="420" y="2539.75" as="targetPoint" />
          </mxGeometry>
        </mxCell>
        <mxCell id="PeQBqCHpVeVmycIjUM5T-88" value="What if" style="edgeLabel;html=1;align=center;verticalAlign=middle;resizable=0;points=[];fontFamily=space mono;fontSource=https%3A%2F%2Ffonts.googleapis.com%2Fcss%3Ffamily%3Dspace%2Bmono;" vertex="1" connectable="0" parent="PeQBqCHpVeVmycIjUM5T-87">
          <mxGeometry x="0.288" y="-1" relative="1" as="geometry">
            <mxPoint x="31" y="-7" as="offset" />
          </mxGeometry>
        </mxCell>
        <mxCell id="PeQBqCHpVeVmycIjUM5T-89" value="&lt;font data-font-src=&quot;https://fonts.googleapis.com/css?family=space+mono&quot; face=&quot;space mono&quot;&gt;9&lt;/font&gt;" style="strokeWidth=2;html=1;shape=mxgraph.flowchart.start_2;whiteSpace=wrap;" vertex="1" parent="WIyWlLk6GJQsqaUBKTNV-1">
          <mxGeometry x="140" y="2087.5" width="40" height="40" as="geometry" />
        </mxCell>
        <mxCell id="PeQBqCHpVeVmycIjUM5T-92" style="edgeStyle=orthogonalEdgeStyle;rounded=0;orthogonalLoop=1;jettySize=auto;html=1;endArrow=block;endFill=0;entryX=1;entryY=0.5;entryDx=0;entryDy=0;exitX=0.5;exitY=1;exitDx=0;exitDy=0;" edge="1" parent="WIyWlLk6GJQsqaUBKTNV-1" source="PeQBqCHpVeVmycIjUM5T-74" target="PeQBqCHpVeVmycIjUM5T-81">
          <mxGeometry relative="1" as="geometry">
            <mxPoint x="909" y="2773" as="sourcePoint" />
            <mxPoint x="909" y="2809" as="targetPoint" />
          </mxGeometry>
        </mxCell>
        <mxCell id="PeQBqCHpVeVmycIjUM5T-93" value="Order ยา?" style="rhombus;whiteSpace=wrap;html=1;shadow=0;fontFamily=space mono;fontSize=12;align=center;strokeWidth=1;spacing=6;spacingTop=-4;fontSource=https%3A%2F%2Ffonts.googleapis.com%2Fcss%3Ffamily%3Dspace%2Bmono;" vertex="1" parent="WIyWlLk6GJQsqaUBKTNV-1">
          <mxGeometry x="77" y="2625.75" width="166" height="60" as="geometry" />
        </mxCell>
        <mxCell id="PeQBqCHpVeVmycIjUM5T-94" value="ST: พยาบาลผู้ป่วยใน&lt;br&gt;&amp;nbsp;เตรียม Discharge,&lt;br&gt;Key Order ให้ครบ" style="rounded=1;whiteSpace=wrap;html=1;fontSize=12;glass=0;strokeWidth=1;shadow=0;fontFamily=space mono;fontSource=https%3A%2F%2Ffonts.googleapis.com%2Fcss%3Ffamily%3Dspace%2Bmono;" vertex="1" parent="WIyWlLk6GJQsqaUBKTNV-1">
          <mxGeometry x="60" y="2825" width="200" height="52.5" as="geometry" />
        </mxCell>
        <mxCell id="PeQBqCHpVeVmycIjUM5T-95" value="No" style="rounded=0;html=1;jettySize=auto;orthogonalLoop=1;fontSize=11;endArrow=block;endFill=0;endSize=8;strokeWidth=1;shadow=0;labelBackgroundColor=none;edgeStyle=orthogonalEdgeStyle;fontFamily=space mono;fontSource=https%3A%2F%2Ffonts.googleapis.com%2Fcss%3Ffamily%3Dspace%2Bmono;exitX=0.5;exitY=1;exitDx=0;exitDy=0;" edge="1" parent="WIyWlLk6GJQsqaUBKTNV-1" source="PeQBqCHpVeVmycIjUM5T-93" target="PeQBqCHpVeVmycIjUM5T-96">
          <mxGeometry y="13" relative="1" as="geometry">
            <mxPoint as="offset" />
            <mxPoint x="169" y="2596" as="sourcePoint" />
            <mxPoint x="139" y="2715" as="targetPoint" />
          </mxGeometry>
        </mxCell>
        <mxCell id="PeQBqCHpVeVmycIjUM5T-96" value="ต้องการ Discharge?" style="rhombus;whiteSpace=wrap;html=1;shadow=0;fontFamily=space mono;fontSize=12;align=center;strokeWidth=1;spacing=6;spacingTop=-4;fontSource=https%3A%2F%2Ffonts.googleapis.com%2Fcss%3Ffamily%3Dspace%2Bmono;" vertex="1" parent="WIyWlLk6GJQsqaUBKTNV-1">
          <mxGeometry x="77" y="2729.25" width="166" height="60" as="geometry" />
        </mxCell>
        <mxCell id="PeQBqCHpVeVmycIjUM5T-97" value="No" style="rounded=0;html=1;jettySize=auto;orthogonalLoop=1;fontSize=11;endArrow=block;endFill=0;endSize=8;strokeWidth=1;shadow=0;labelBackgroundColor=none;edgeStyle=orthogonalEdgeStyle;fontFamily=space mono;fontSource=https%3A%2F%2Ffonts.googleapis.com%2Fcss%3Ffamily%3Dspace%2Bmono;exitX=1;exitY=0.5;exitDx=0;exitDy=0;entryX=0.5;entryY=0;entryDx=0;entryDy=0;entryPerimeter=0;" edge="1" parent="WIyWlLk6GJQsqaUBKTNV-1" source="PeQBqCHpVeVmycIjUM5T-96" target="PeQBqCHpVeVmycIjUM5T-16">
          <mxGeometry y="13" relative="1" as="geometry">
            <mxPoint as="offset" />
            <mxPoint x="169" y="2696" as="sourcePoint" />
            <mxPoint x="169" y="2739" as="targetPoint" />
          </mxGeometry>
        </mxCell>
        <mxCell id="PeQBqCHpVeVmycIjUM5T-98" style="edgeStyle=orthogonalEdgeStyle;rounded=0;orthogonalLoop=1;jettySize=auto;html=1;endArrow=block;endFill=0;entryX=1;entryY=0.5;entryDx=0;entryDy=0;entryPerimeter=0;exitX=0;exitY=0.5;exitDx=0;exitDy=0;" edge="1" parent="WIyWlLk6GJQsqaUBKTNV-1" source="PeQBqCHpVeVmycIjUM5T-81" target="PeQBqCHpVeVmycIjUM5T-16">
          <mxGeometry relative="1" as="geometry">
            <mxPoint x="652" y="2778.75" as="sourcePoint" />
            <mxPoint x="652" y="2809" as="targetPoint" />
          </mxGeometry>
        </mxCell>
        <mxCell id="PeQBqCHpVeVmycIjUM5T-100" value="Yes" style="edgeStyle=orthogonalEdgeStyle;rounded=0;html=1;jettySize=auto;orthogonalLoop=1;fontSize=11;endArrow=block;endFill=0;endSize=8;strokeWidth=1;shadow=0;labelBackgroundColor=none;fontFamily=space mono;fontSource=https%3A%2F%2Ffonts.googleapis.com%2Fcss%3Ffamily%3Dspace%2Bmono;exitX=1;exitY=0.5;exitDx=0;exitDy=0;entryX=0;entryY=0.5;entryDx=0;entryDy=0;" edge="1" parent="WIyWlLk6GJQsqaUBKTNV-1" source="PeQBqCHpVeVmycIjUM5T-93" target="PeQBqCHpVeVmycIjUM5T-64">
          <mxGeometry x="-0.1591" y="19" relative="1" as="geometry">
            <mxPoint as="offset" />
            <mxPoint x="252" y="2566" as="sourcePoint" />
            <mxPoint x="309" y="2645" as="targetPoint" />
          </mxGeometry>
        </mxCell>
        <mxCell id="PeQBqCHpVeVmycIjUM5T-102" value="Yes" style="edgeStyle=orthogonalEdgeStyle;rounded=0;html=1;jettySize=auto;orthogonalLoop=1;fontSize=11;endArrow=block;endFill=0;endSize=8;strokeWidth=1;shadow=0;labelBackgroundColor=none;fontFamily=space mono;fontSource=https%3A%2F%2Ffonts.googleapis.com%2Fcss%3Ffamily%3Dspace%2Bmono;exitX=0.5;exitY=1;exitDx=0;exitDy=0;entryX=0.5;entryY=0;entryDx=0;entryDy=0;" edge="1" parent="WIyWlLk6GJQsqaUBKTNV-1" source="PeQBqCHpVeVmycIjUM5T-96" target="PeQBqCHpVeVmycIjUM5T-94">
          <mxGeometry x="-0.1591" y="19" relative="1" as="geometry">
            <mxPoint as="offset" />
            <mxPoint x="252" y="2666" as="sourcePoint" />
            <mxPoint x="320" y="2666" as="targetPoint" />
          </mxGeometry>
        </mxCell>
        <mxCell id="PeQBqCHpVeVmycIjUM5T-103" value="ST: การเงินผู้ป่วยใน&lt;br&gt;&amp;nbsp;ตรวจสอบ&amp;nbsp;Order ครบแล้ว, &lt;br&gt;พิมพ์ใบ MEMO แจ้ง คชจ." style="rounded=1;whiteSpace=wrap;html=1;fontSize=12;glass=0;strokeWidth=1;shadow=0;fontFamily=space mono;fontSource=https%3A%2F%2Ffonts.googleapis.com%2Fcss%3Ffamily%3Dspace%2Bmono;" vertex="1" parent="WIyWlLk6GJQsqaUBKTNV-1">
          <mxGeometry x="60" y="3005" width="200" height="52.5" as="geometry" />
        </mxCell>
        <mxCell id="PeQBqCHpVeVmycIjUM5T-104" value="ST: ห้องยาผู้ป่วยใน&lt;br&gt;บันทึกคืนยาในระบบ, Key+&lt;br&gt;เตรียมยากลับบ้าน, ส่งยาให้ผู้ป่วย" style="rounded=1;whiteSpace=wrap;html=1;fontSize=12;glass=0;strokeWidth=1;shadow=0;fontFamily=space mono;fontSource=https%3A%2F%2Ffonts.googleapis.com%2Fcss%3Ffamily%3Dspace%2Bmono;" vertex="1" parent="WIyWlLk6GJQsqaUBKTNV-1">
          <mxGeometry x="60" y="2915" width="200" height="52.5" as="geometry" />
        </mxCell>
        <mxCell id="PeQBqCHpVeVmycIjUM5T-105" value="ST: การเงินผู้ป่วย&lt;br&gt;พิมพ์ใบเสร็จฯ, ใบแจ้งหนี้, ..." style="rounded=1;whiteSpace=wrap;html=1;fontSize=12;glass=0;strokeWidth=1;shadow=0;fontFamily=space mono;fontSource=https%3A%2F%2Ffonts.googleapis.com%2Fcss%3Ffamily%3Dspace%2Bmono;" vertex="1" parent="WIyWlLk6GJQsqaUBKTNV-1">
          <mxGeometry x="60" y="3095" width="200" height="52.5" as="geometry" />
        </mxCell>
        <mxCell id="PeQBqCHpVeVmycIjUM5T-106" value="ผู้ป่วยรับบริการเสร็จสิ้น" style="rounded=1;whiteSpace=wrap;html=1;fontSize=12;glass=0;strokeWidth=1;shadow=0;fontFamily=space mono;fontSource=https%3A%2F%2Ffonts.googleapis.com%2Fcss%3Ffamily%3Dspace%2Bmono;" vertex="1" parent="WIyWlLk6GJQsqaUBKTNV-1">
          <mxGeometry x="60" y="3185" width="200" height="40" as="geometry" />
        </mxCell>
        <mxCell id="PeQBqCHpVeVmycIjUM5T-107" style="edgeStyle=orthogonalEdgeStyle;rounded=0;orthogonalLoop=1;jettySize=auto;html=1;endArrow=block;endFill=0;exitX=0.5;exitY=1;exitDx=0;exitDy=0;entryX=0.5;entryY=0;entryDx=0;entryDy=0;" edge="1" parent="WIyWlLk6GJQsqaUBKTNV-1" source="PeQBqCHpVeVmycIjUM5T-94" target="PeQBqCHpVeVmycIjUM5T-104">
          <mxGeometry relative="1" as="geometry">
            <mxPoint x="652" y="2778.75" as="sourcePoint" />
            <mxPoint x="652" y="2809" as="targetPoint" />
          </mxGeometry>
        </mxCell>
        <mxCell id="PeQBqCHpVeVmycIjUM5T-108" value="ผู้ป่วยจำเป็นต้อง&lt;br&gt;พบแพทย์?" style="rhombus;whiteSpace=wrap;html=1;shadow=0;fontFamily=space mono;fontSize=12;align=center;strokeWidth=1;spacing=6;spacingTop=-4;fontSource=https%3A%2F%2Ffonts.googleapis.com%2Fcss%3Ffamily%3Dspace%2Bmono;" vertex="1" parent="WIyWlLk6GJQsqaUBKTNV-1">
          <mxGeometry x="448" y="380" width="166" height="60" as="geometry" />
        </mxCell>
        <mxCell id="PeQBqCHpVeVmycIjUM5T-109" value="ST: ห้องที่ต้องทำการ...&lt;br&gt;(ไตเทียม, ทำแผล, ฉีดยา) &lt;br&gt;ทำบริการ พยบ.,&amp;nbsp;ส่งต่อ ST อื่น" style="rounded=1;whiteSpace=wrap;html=1;fontSize=12;glass=0;strokeWidth=1;shadow=0;fontFamily=space mono;fontSource=https%3A%2F%2Ffonts.googleapis.com%2Fcss%3Ffamily%3Dspace%2Bmono;" vertex="1" parent="WIyWlLk6GJQsqaUBKTNV-1">
          <mxGeometry x="431" y="482" width="200" height="52.5" as="geometry" />
        </mxCell>
        <mxCell id="PeQBqCHpVeVmycIjUM5T-110" value="ST: ห้องที่ต้องทำการ...&lt;br&gt;บันทึกทำหัตการ ค่าใช้จ่ายที่เพิ่มเติม" style="rounded=1;whiteSpace=wrap;html=1;fontSize=12;glass=0;strokeWidth=1;shadow=0;fontFamily=space mono;fontSource=https%3A%2F%2Ffonts.googleapis.com%2Fcss%3Ffamily%3Dspace%2Bmono;" vertex="1" parent="WIyWlLk6GJQsqaUBKTNV-1">
          <mxGeometry x="431" y="569.5" width="200" height="52.5" as="geometry" />
        </mxCell>
        <mxCell id="PeQBqCHpVeVmycIjUM5T-111" value="นัดหมายผู้ป่วย (ถ้ามี)" style="rounded=1;whiteSpace=wrap;html=1;fontSize=12;glass=0;strokeWidth=1;shadow=0;fontFamily=space mono;fontSource=https%3A%2F%2Ffonts.googleapis.com%2Fcss%3Ffamily%3Dspace%2Bmono;" vertex="1" parent="WIyWlLk6GJQsqaUBKTNV-1">
          <mxGeometry x="1068" y="1125" width="162" height="37.5" as="geometry" />
        </mxCell>
        <mxCell id="PeQBqCHpVeVmycIjUM5T-113" value="" style="rounded=0;html=1;jettySize=auto;orthogonalLoop=1;fontSize=11;endArrow=block;endFill=0;endSize=8;strokeWidth=1;shadow=0;labelBackgroundColor=none;fontFamily=space mono;fontSource=https%3A%2F%2Ffonts.googleapis.com%2Fcss%3Ffamily%3Dspace%2Bmono;edgeStyle=orthogonalEdgeStyle;exitX=0.5;exitY=1;exitDx=0;exitDy=0;startArrow=none;exitPerimeter=0;entryX=0.5;entryY=0;entryDx=0;entryDy=0;" edge="1" parent="WIyWlLk6GJQsqaUBKTNV-1" source="yvNfWJmXIzpKwHx-HULG-10" target="PeQBqCHpVeVmycIjUM5T-111">
          <mxGeometry x="-0.3333" y="20" relative="1" as="geometry">
            <mxPoint as="offset" />
            <mxPoint x="1159" y="1168" as="sourcePoint" />
            <mxPoint x="1150" y="1125" as="targetPoint" />
          </mxGeometry>
        </mxCell>
        <mxCell id="PeQBqCHpVeVmycIjUM5T-114" value="Yes" style="edgeStyle=orthogonalEdgeStyle;rounded=0;html=1;jettySize=auto;orthogonalLoop=1;fontSize=11;endArrow=block;endFill=0;endSize=8;strokeWidth=1;shadow=0;labelBackgroundColor=none;fontFamily=space mono;fontSource=https%3A%2F%2Ffonts.googleapis.com%2Fcss%3Ffamily%3Dspace%2Bmono;exitX=1;exitY=0.5;exitDx=0;exitDy=0;entryX=0;entryY=0.5;entryDx=0;entryDy=0;" edge="1" parent="WIyWlLk6GJQsqaUBKTNV-1" source="PeQBqCHpVeVmycIjUM5T-108" target="1RqYY2e8a6liGjpJobrj-7">
          <mxGeometry x="-0.0526" y="10" relative="1" as="geometry">
            <mxPoint as="offset" />
            <mxPoint x="1013" y="517" as="sourcePoint" />
            <mxPoint x="1110" y="517" as="targetPoint" />
          </mxGeometry>
        </mxCell>
        <mxCell id="PeQBqCHpVeVmycIjUM5T-115" style="edgeStyle=orthogonalEdgeStyle;rounded=0;orthogonalLoop=1;jettySize=auto;html=1;endArrow=block;endFill=0;entryX=0.5;entryY=0;entryDx=0;entryDy=0;exitX=0.5;exitY=1;exitDx=0;exitDy=0;exitPerimeter=0;" edge="1" parent="WIyWlLk6GJQsqaUBKTNV-1" source="qahBIfakXGSAEwPWHKox-19" target="PeQBqCHpVeVmycIjUM5T-108">
          <mxGeometry relative="1" as="geometry">
            <mxPoint x="531" y="360" as="sourcePoint" />
            <mxPoint x="541" y="326" as="targetPoint" />
          </mxGeometry>
        </mxCell>
        <mxCell id="PeQBqCHpVeVmycIjUM5T-116" style="edgeStyle=orthogonalEdgeStyle;rounded=0;orthogonalLoop=1;jettySize=auto;html=1;endArrow=block;endFill=0;entryX=0.5;entryY=0;entryDx=0;entryDy=0;exitX=0.5;exitY=1;exitDx=0;exitDy=0;" edge="1" parent="WIyWlLk6GJQsqaUBKTNV-1" source="PeQBqCHpVeVmycIjUM5T-109" target="PeQBqCHpVeVmycIjUM5T-110">
          <mxGeometry relative="1" as="geometry">
            <mxPoint x="640" y="550" as="sourcePoint" />
            <mxPoint x="541" y="390" as="targetPoint" />
          </mxGeometry>
        </mxCell>
        <mxCell id="PeQBqCHpVeVmycIjUM5T-117" value="No" style="rounded=0;html=1;jettySize=auto;orthogonalLoop=1;fontSize=11;endArrow=block;endFill=0;endSize=8;strokeWidth=1;shadow=0;labelBackgroundColor=none;edgeStyle=orthogonalEdgeStyle;fontFamily=space mono;fontSource=https%3A%2F%2Ffonts.googleapis.com%2Fcss%3Ffamily%3Dspace%2Bmono;exitX=0.5;exitY=1;exitDx=0;exitDy=0;entryX=0.5;entryY=0;entryDx=0;entryDy=0;" edge="1" parent="WIyWlLk6GJQsqaUBKTNV-1" source="PeQBqCHpVeVmycIjUM5T-108" target="PeQBqCHpVeVmycIjUM5T-109">
          <mxGeometry y="13" relative="1" as="geometry">
            <mxPoint as="offset" />
            <mxPoint x="930" y="547" as="sourcePoint" />
            <mxPoint x="930" y="587" as="targetPoint" />
          </mxGeometry>
        </mxCell>
        <mxCell id="PeQBqCHpVeVmycIjUM5T-118" style="edgeStyle=orthogonalEdgeStyle;rounded=0;orthogonalLoop=1;jettySize=auto;html=1;endArrow=block;endFill=0;entryX=0;entryY=0.5;entryDx=0;entryDy=0;exitX=0.5;exitY=1;exitDx=0;exitDy=0;entryPerimeter=0;" edge="1" parent="WIyWlLk6GJQsqaUBKTNV-1" source="PeQBqCHpVeVmycIjUM5T-110" target="yvNfWJmXIzpKwHx-HULG-10">
          <mxGeometry relative="1" as="geometry">
            <mxPoint x="541" y="545" as="sourcePoint" />
            <mxPoint x="541" y="580" as="targetPoint" />
          </mxGeometry>
        </mxCell>
        <mxCell id="PeQBqCHpVeVmycIjUM5T-119" style="edgeStyle=orthogonalEdgeStyle;rounded=0;orthogonalLoop=1;jettySize=auto;html=1;endArrow=block;endFill=0;exitX=0.5;exitY=1;exitDx=0;exitDy=0;entryX=0.5;entryY=0;entryDx=0;entryDy=0;" edge="1" parent="WIyWlLk6GJQsqaUBKTNV-1" source="PeQBqCHpVeVmycIjUM5T-104" target="PeQBqCHpVeVmycIjUM5T-103">
          <mxGeometry relative="1" as="geometry">
            <mxPoint x="170" y="2888" as="sourcePoint" />
            <mxPoint x="170" y="2925" as="targetPoint" />
          </mxGeometry>
        </mxCell>
        <mxCell id="PeQBqCHpVeVmycIjUM5T-120" style="edgeStyle=orthogonalEdgeStyle;rounded=0;orthogonalLoop=1;jettySize=auto;html=1;endArrow=block;endFill=0;exitX=0.5;exitY=1;exitDx=0;exitDy=0;entryX=0.5;entryY=0;entryDx=0;entryDy=0;" edge="1" parent="WIyWlLk6GJQsqaUBKTNV-1" source="PeQBqCHpVeVmycIjUM5T-103" target="PeQBqCHpVeVmycIjUM5T-105">
          <mxGeometry relative="1" as="geometry">
            <mxPoint x="170" y="2978" as="sourcePoint" />
            <mxPoint x="170" y="3015" as="targetPoint" />
          </mxGeometry>
        </mxCell>
        <mxCell id="PeQBqCHpVeVmycIjUM5T-121" style="edgeStyle=orthogonalEdgeStyle;rounded=0;orthogonalLoop=1;jettySize=auto;html=1;endArrow=block;endFill=0;entryX=0.5;entryY=0;entryDx=0;entryDy=0;exitX=0.5;exitY=1;exitDx=0;exitDy=0;" edge="1" parent="WIyWlLk6GJQsqaUBKTNV-1" source="PeQBqCHpVeVmycIjUM5T-105" target="PeQBqCHpVeVmycIjUM5T-106">
          <mxGeometry relative="1" as="geometry">
            <mxPoint x="159" y="3145" as="sourcePoint" />
            <mxPoint x="180" y="3025" as="targetPoint" />
          </mxGeometry>
        </mxCell>
        <mxCell id="PeQBqCHpVeVmycIjUM5T-125" style="edgeStyle=orthogonalEdgeStyle;rounded=0;orthogonalLoop=1;jettySize=auto;html=1;endArrow=block;endFill=0;exitX=0.5;exitY=1;exitDx=0;exitDy=0;entryX=0.5;entryY=0;entryDx=0;entryDy=0;" edge="1" parent="WIyWlLk6GJQsqaUBKTNV-1" source="PeQBqCHpVeVmycIjUM5T-24" target="PeQBqCHpVeVmycIjUM5T-3">
          <mxGeometry relative="1" as="geometry">
            <mxPoint x="170" y="2888" as="sourcePoint" />
            <mxPoint x="159" y="2324.6" as="targetPoint" />
          </mxGeometry>
        </mxCell>
        <mxCell id="PeQBqCHpVeVmycIjUM5T-126" style="rounded=0;orthogonalLoop=1;jettySize=auto;html=1;endArrow=block;endFill=0;entryX=0.5;entryY=0;entryDx=0;entryDy=0;exitX=0.5;exitY=1;exitDx=0;exitDy=0;" edge="1" parent="WIyWlLk6GJQsqaUBKTNV-1" source="PeQBqCHpVeVmycIjUM5T-23" target="PeQBqCHpVeVmycIjUM5T-24">
          <mxGeometry relative="1" as="geometry">
            <mxPoint x="159" y="2215" as="sourcePoint" />
            <mxPoint x="169" y="2334" as="targetPoint" />
          </mxGeometry>
        </mxCell>
        <mxCell id="PeQBqCHpVeVmycIjUM5T-129" style="rounded=0;orthogonalLoop=1;jettySize=auto;html=1;endArrow=block;endFill=0;entryX=0.5;entryY=0;entryDx=0;entryDy=0;exitX=0.5;exitY=1;exitDx=0;exitDy=0;exitPerimeter=0;" edge="1" parent="WIyWlLk6GJQsqaUBKTNV-1" source="PeQBqCHpVeVmycIjUM5T-89" target="PeQBqCHpVeVmycIjUM5T-23">
          <mxGeometry relative="1" as="geometry">
            <mxPoint x="170" y="2218" as="sourcePoint" />
            <mxPoint x="169" y="2245" as="targetPoint" />
          </mxGeometry>
        </mxCell>
        <mxCell id="PeQBqCHpVeVmycIjUM5T-130" style="rounded=0;orthogonalLoop=1;jettySize=auto;html=1;endArrow=block;endFill=0;exitX=0.5;exitY=1;exitDx=0;exitDy=0;" edge="1" parent="WIyWlLk6GJQsqaUBKTNV-1" source="yvNfWJmXIzpKwHx-HULG-43" target="PeQBqCHpVeVmycIjUM5T-89">
          <mxGeometry relative="1" as="geometry">
            <mxPoint x="170" y="2138" as="sourcePoint" />
            <mxPoint x="170" y="2165" as="targetPoint" />
          </mxGeometry>
        </mxCell>
        <mxCell id="PeQBqCHpVeVmycIjUM5T-131" style="rounded=0;orthogonalLoop=1;jettySize=auto;html=1;endArrow=block;endFill=0;exitX=0.5;exitY=1;exitDx=0;exitDy=0;entryX=0.5;entryY=0;entryDx=0;entryDy=0;entryPerimeter=0;" edge="1" parent="WIyWlLk6GJQsqaUBKTNV-1" source="yvNfWJmXIzpKwHx-HULG-43" target="PeQBqCHpVeVmycIjUM5T-89">
          <mxGeometry relative="1" as="geometry">
            <mxPoint x="170" y="2138" as="sourcePoint" />
            <mxPoint x="170" y="2165" as="targetPoint" />
          </mxGeometry>
        </mxCell>
        <mxCell id="PeQBqCHpVeVmycIjUM5T-132" style="rounded=0;orthogonalLoop=1;jettySize=auto;html=1;endArrow=block;endFill=0;exitX=0.5;exitY=1;exitDx=0;exitDy=0;entryX=0.5;entryY=0;entryDx=0;entryDy=0;exitPerimeter=0;" edge="1" parent="WIyWlLk6GJQsqaUBKTNV-1" source="PeQBqCHpVeVmycIjUM5T-21" target="yvNfWJmXIzpKwHx-HULG-43">
          <mxGeometry relative="1" as="geometry">
            <mxPoint x="159.93" y="1985" as="sourcePoint" />
            <mxPoint x="159.93" y="2015" as="targetPoint" />
          </mxGeometry>
        </mxCell>
        <mxCell id="PeQBqCHpVeVmycIjUM5T-134" value="&lt;font data-font-src=&quot;https://fonts.googleapis.com/css?family=space+mono&quot; face=&quot;space mono&quot;&gt;9&lt;/font&gt;" style="strokeWidth=2;html=1;shape=mxgraph.flowchart.start_2;whiteSpace=wrap;" vertex="1" parent="WIyWlLk6GJQsqaUBKTNV-1">
          <mxGeometry x="1029" y="2722.75" width="40" height="40" as="geometry" />
        </mxCell>
        <mxCell id="PeQBqCHpVeVmycIjUM5T-135" style="edgeStyle=orthogonalEdgeStyle;rounded=0;orthogonalLoop=1;jettySize=auto;html=1;endArrow=block;endFill=0;entryX=0.5;entryY=0;entryDx=0;entryDy=0;exitX=1;exitY=0.5;exitDx=0;exitDy=0;entryPerimeter=0;" edge="1" parent="WIyWlLk6GJQsqaUBKTNV-1" source="PeQBqCHpVeVmycIjUM5T-70" target="PeQBqCHpVeVmycIjUM5T-134">
          <mxGeometry relative="1" as="geometry">
            <mxPoint x="752" y="2835" as="sourcePoint" />
            <mxPoint x="889" y="2753" as="targetPoint" />
          </mxGeometry>
        </mxCell>
        <mxCell id="PeQBqCHpVeVmycIjUM5T-136" style="edgeStyle=orthogonalEdgeStyle;rounded=0;orthogonalLoop=1;jettySize=auto;html=1;endArrow=block;endFill=0;entryX=0.5;entryY=0;entryDx=0;entryDy=0;exitX=1;exitY=0.5;exitDx=0;exitDy=0;entryPerimeter=0;" edge="1" parent="WIyWlLk6GJQsqaUBKTNV-1" source="PeQBqCHpVeVmycIjUM5T-51" target="PeQBqCHpVeVmycIjUM5T-134">
          <mxGeometry relative="1" as="geometry">
            <mxPoint x="1009" y="2666" as="sourcePoint" />
            <mxPoint x="1059" y="2733" as="targetPoint" />
          </mxGeometry>
        </mxCell>
        <mxCell id="PeQBqCHpVeVmycIjUM5T-137" style="edgeStyle=orthogonalEdgeStyle;rounded=0;orthogonalLoop=1;jettySize=auto;html=1;endArrow=block;endFill=0;entryX=0.5;entryY=0;entryDx=0;entryDy=0;exitX=1;exitY=0.5;exitDx=0;exitDy=0;entryPerimeter=0;" edge="1" parent="WIyWlLk6GJQsqaUBKTNV-1" source="PeQBqCHpVeVmycIjUM5T-47" target="PeQBqCHpVeVmycIjUM5T-134">
          <mxGeometry relative="1" as="geometry">
            <mxPoint x="1019" y="2676" as="sourcePoint" />
            <mxPoint x="1069" y="2743" as="targetPoint" />
          </mxGeometry>
        </mxCell>
        <mxCell id="PeQBqCHpVeVmycIjUM5T-138" style="edgeStyle=orthogonalEdgeStyle;rounded=0;orthogonalLoop=1;jettySize=auto;html=1;endArrow=block;endFill=0;entryX=0.5;entryY=0;entryDx=0;entryDy=0;exitX=1;exitY=0.5;exitDx=0;exitDy=0;entryPerimeter=0;" edge="1" parent="WIyWlLk6GJQsqaUBKTNV-1" source="PeQBqCHpVeVmycIjUM5T-19" target="PeQBqCHpVeVmycIjUM5T-134">
          <mxGeometry relative="1" as="geometry">
            <mxPoint x="1029" y="2686" as="sourcePoint" />
            <mxPoint x="1079" y="2753" as="targetPoint" />
          </mxGeometry>
        </mxCell>
      </root>
    </mxGraphModel>
  </diagram>
</mxfile>
